# WaveFront *.obj file (generated by Autodesk ATF)

mtllib spacer.mtl

g Body1

v -21.271439 -22.152543 10.000000
v -21.271439 -22.152543 5.000000
v -21.603907 -21.917677 5.000000
v -21.893852 -21.631969 5.000000
v -22.133589 -21.302996 5.000000
v -22.316761 -20.939479 5.000000
v -22.438512 -20.551054 5.000000
v -22.495614 -20.148021 5.000000
v -22.486554 -19.741063 5.000000
v -22.411572 -19.340970 5.000000
v -22.272655 -18.958348 5.000000
v -22.073487 -18.603343 5.000000
v -21.819348 -18.285365 5.000000
v -21.516975 -18.012844 5.000000
v -21.174384 -17.793006 5.000000
v -20.800659 -17.631679 5.000000
v -20.405708 -17.533139 5.000000
v -20.000000 -17.500000 5.000000
v -19.594292 -17.533139 5.000000
v -19.199341 -17.631679 5.000000
v -18.825616 -17.793006 5.000000
v -18.483025 -18.012844 5.000000
v -18.180652 -18.285365 5.000000
v -17.926513 -18.603343 5.000000
v -17.727345 -18.958348 5.000000
v -17.588428 -19.340970 5.000000
v -17.513446 -19.741063 5.000000
v -17.504386 -20.148021 5.000000
v -17.561488 -20.551054 5.000000
v -17.683239 -20.939479 5.000000
v -17.866411 -21.302996 5.000000
v -18.106148 -21.631969 5.000000
v -18.396093 -21.917677 5.000000
v -18.728561 -22.152543 5.000000
v -18.728561 -22.152543 10.000000
v -18.396093 -21.917677 10.000000
v -18.106148 -21.631969 10.000000
v -17.866411 -21.302996 10.000000
v -17.683239 -20.939479 10.000000
v -17.561488 -20.551054 10.000000
v -17.504386 -20.148021 10.000000
v -17.513446 -19.741063 10.000000
v -17.588428 -19.340970 10.000000
v -17.727345 -18.958348 10.000000
v -17.926513 -18.603343 10.000000
v -18.180652 -18.285365 10.000000
v -18.483025 -18.012844 10.000000
v -18.825616 -17.793006 10.000000
v -19.199341 -17.631679 10.000000
v -19.594292 -17.533139 10.000000
v -20.000000 -17.500000 10.000000
v -20.405708 -17.533139 10.000000
v -20.800659 -17.631679 10.000000
v -21.174384 -17.793006 10.000000
v -21.516975 -18.012844 10.000000
v -21.819348 -18.285365 10.000000
v -22.073487 -18.603343 10.000000
v -22.272655 -18.958348 10.000000
v -22.411572 -19.340970 10.000000
v -22.486554 -19.741063 10.000000
v -22.495614 -20.148021 10.000000
v -22.438512 -20.551054 10.000000
v -22.316761 -20.939479 10.000000
v -22.133589 -21.302996 10.000000
v -21.893852 -21.631969 10.000000
v -21.603907 -21.917677 10.000000
v 18.728561 -22.152543 10.000000
v 18.728561 -22.152543 5.000000
v 18.396094 -21.917677 5.000000
v 18.106148 -21.631970 5.000000
v 17.866412 -21.302997 5.000000
v 17.683240 -20.939479 5.000000
v 17.561489 -20.551055 5.000000
v 17.504386 -20.148021 5.000000
v 17.513446 -19.741063 5.000000
v 17.588428 -19.340970 5.000000
v 17.727345 -18.958349 5.000000
v 17.926513 -18.603343 5.000000
v 18.180653 -18.285365 5.000000
v 18.483026 -18.012845 5.000000
v 18.825616 -17.793007 5.000000
v 19.199341 -17.631679 5.000000
v 19.594293 -17.533140 5.000000
v 20.000000 -17.500000 5.000000
v 20.405708 -17.533140 5.000000
v 20.800660 -17.631679 5.000000
v 21.174385 -17.793007 5.000000
v 21.516975 -18.012845 5.000000
v 21.819348 -18.285365 5.000000
v 22.073487 -18.603343 5.000000
v 22.272656 -18.958349 5.000000
v 22.411572 -19.340970 5.000000
v 22.486554 -19.741063 5.000000
v 22.495614 -20.148021 5.000000
v 22.438512 -20.551055 5.000000
v 22.316761 -20.939479 5.000000
v 22.133589 -21.302997 5.000000
v 21.893852 -21.631970 5.000000
v 21.603907 -21.917677 5.000000
v 21.271440 -22.152543 5.000000
v 21.271440 -22.152543 10.000000
v 21.603907 -21.917677 10.000000
v 21.893852 -21.631970 10.000000
v 22.133589 -21.302997 10.000000
v 22.316761 -20.939479 10.000000
v 22.438512 -20.551055 10.000000
v 22.495614 -20.148021 10.000000
v 22.486554 -19.741063 10.000000
v 22.411572 -19.340970 10.000000
v 22.272656 -18.958349 10.000000
v 22.073487 -18.603343 10.000000
v 21.819348 -18.285365 10.000000
v 21.516975 -18.012845 10.000000
v 21.174385 -17.793007 10.000000
v 20.800660 -17.631679 10.000000
v 20.405708 -17.533140 10.000000
v 20.000000 -17.500000 10.000000
v 19.594293 -17.533140 10.000000
v 19.199341 -17.631679 10.000000
v 18.825616 -17.793007 10.000000
v 18.483026 -18.012845 10.000000
v 18.180653 -18.285365 10.000000
v 17.926513 -18.603343 10.000000
v 17.727345 -18.958349 10.000000
v 17.588428 -19.340970 10.000000
v 17.513446 -19.741063 10.000000
v 17.504386 -20.148021 10.000000
v 17.561489 -20.551055 10.000000
v 17.683240 -20.939479 10.000000
v 17.866412 -21.302997 10.000000
v 18.106148 -21.631970 10.000000
v 18.396094 -21.917677 10.000000
v -21.271439 -32.152543 10.000000
v -21.271439 -32.152543 5.000000
v -21.603907 -31.917677 5.000000
v -21.893852 -31.631969 5.000000
v -22.133589 -31.302996 5.000000
v -22.316761 -30.939479 5.000000
v -22.438512 -30.551054 5.000000
v -22.495614 -30.148021 5.000000
v -22.486554 -29.741063 5.000000
v -22.411572 -29.340970 5.000000
v -22.272655 -28.958348 5.000000
v -22.073487 -28.603343 5.000000
v -21.819348 -28.285365 5.000000
v -21.516975 -28.012844 5.000000
v -21.174384 -27.793006 5.000000
v -20.800659 -27.631679 5.000000
v -20.405708 -27.533139 5.000000
v -20.000000 -27.500000 5.000000
v -19.594292 -27.533139 5.000000
v -19.199341 -27.631679 5.000000
v -18.825616 -27.793006 5.000000
v -18.483025 -28.012844 5.000000
v -18.180652 -28.285365 5.000000
v -17.926513 -28.603343 5.000000
v -17.727345 -28.958348 5.000000
v -17.588428 -29.340970 5.000000
v -17.513446 -29.741063 5.000000
v -17.504386 -30.148021 5.000000
v -17.561488 -30.551054 5.000000
v -17.683239 -30.939479 5.000000
v -17.866411 -31.302996 5.000000
v -18.106148 -31.631969 5.000000
v -18.396093 -31.917677 5.000000
v -18.728561 -32.152543 5.000000
v -18.728561 -32.152543 10.000000
v -18.396093 -31.917677 10.000000
v -18.106148 -31.631969 10.000000
v -17.866411 -31.302996 10.000000
v -17.683239 -30.939479 10.000000
v -17.561488 -30.551054 10.000000
v -17.504386 -30.148021 10.000000
v -17.513446 -29.741063 10.000000
v -17.588428 -29.340970 10.000000
v -17.727345 -28.958348 10.000000
v -17.926513 -28.603343 10.000000
v -18.180652 -28.285365 10.000000
v -18.483025 -28.012844 10.000000
v -18.825616 -27.793006 10.000000
v -19.199341 -27.631679 10.000000
v -19.594292 -27.533139 10.000000
v -20.000000 -27.500000 10.000000
v -20.405708 -27.533139 10.000000
v -20.800659 -27.631679 10.000000
v -21.174384 -27.793006 10.000000
v -21.516975 -28.012844 10.000000
v -21.819348 -28.285365 10.000000
v -22.073487 -28.603343 10.000000
v -22.272655 -28.958348 10.000000
v -22.411572 -29.340970 10.000000
v -22.486554 -29.741063 10.000000
v -22.495614 -30.148021 10.000000
v -22.438512 -30.551054 10.000000
v -22.316761 -30.939479 10.000000
v -22.133589 -31.302996 10.000000
v -21.893852 -31.631969 10.000000
v -21.603907 -31.917677 10.000000
v 18.728561 -32.152543 10.000000
v 18.728561 -32.152543 5.000000
v 18.396094 -31.917677 5.000000
v 18.106148 -31.631970 5.000000
v 17.866412 -31.302997 5.000000
v 17.683240 -30.939479 5.000000
v 17.561489 -30.551055 5.000000
v 17.504386 -30.148021 5.000000
v 17.513446 -29.741063 5.000000
v 17.588428 -29.340970 5.000000
v 17.727345 -28.958349 5.000000
v 17.926513 -28.603343 5.000000
v 18.180653 -28.285365 5.000000
v 18.483026 -28.012845 5.000000
v 18.825616 -27.793007 5.000000
v 19.199341 -27.631679 5.000000
v 19.594293 -27.533140 5.000000
v 20.000000 -27.500000 5.000000
v 20.405708 -27.533140 5.000000
v 20.800660 -27.631679 5.000000
v 21.174385 -27.793007 5.000000
v 21.516975 -28.012845 5.000000
v 21.819348 -28.285365 5.000000
v 22.073487 -28.603343 5.000000
v 22.272656 -28.958349 5.000000
v 22.411572 -29.340970 5.000000
v 22.486554 -29.741063 5.000000
v 22.495614 -30.148021 5.000000
v 22.438512 -30.551055 5.000000
v 22.316761 -30.939479 5.000000
v 22.133589 -31.302997 5.000000
v 21.893852 -31.631970 5.000000
v 21.603907 -31.917677 5.000000
v 21.271440 -32.152543 5.000000
v 21.271440 -32.152543 10.000000
v 21.603907 -31.917677 10.000000
v 21.893852 -31.631970 10.000000
v 22.133589 -31.302997 10.000000
v 22.316761 -30.939479 10.000000
v 22.438512 -30.551055 10.000000
v 22.495614 -30.148021 10.000000
v 22.486554 -29.741063 10.000000
v 22.411572 -29.340970 10.000000
v 22.272656 -28.958349 10.000000
v 22.073487 -28.603343 10.000000
v 21.819348 -28.285365 10.000000
v 21.516975 -28.012845 10.000000
v 21.174385 -27.793007 10.000000
v 20.800660 -27.631679 10.000000
v 20.405708 -27.533140 10.000000
v 20.000000 -27.500000 10.000000
v 19.594293 -27.533140 10.000000
v 19.199341 -27.631679 10.000000
v 18.825616 -27.793007 10.000000
v 18.483026 -28.012845 10.000000
v 18.180653 -28.285365 10.000000
v 17.926513 -28.603343 10.000000
v 17.727345 -28.958349 10.000000
v 17.588428 -29.340970 10.000000
v 17.513446 -29.741063 10.000000
v 17.504386 -30.148021 10.000000
v 17.561489 -30.551055 10.000000
v 17.683240 -30.939479 10.000000
v 17.866412 -31.302997 10.000000
v 18.106148 -31.631970 10.000000
v 18.396094 -31.917677 10.000000
v -20.977555 -22.333709 10.000000
v -20.661737 -22.472995 10.000000
v -20.661737 -22.472995 5.000000
v -20.977555 -22.333709 5.000000
v 19.022445 -22.333709 10.000000
v 19.338263 -22.472995 10.000000
v 19.338263 -22.472995 5.000000
v 19.022445 -22.333709 5.000000
v -20.977555 -32.333709 10.000000
v -20.661737 -32.472995 10.000000
v -20.661737 -32.472995 5.000000
v -20.977555 -32.333709 5.000000
v 19.022445 -32.333709 10.000000
v 19.338263 -32.472995 10.000000
v 19.338263 -32.472995 5.000000
v 19.022445 -32.333709 5.000000
v -19.022055 -32.333503 10.000000
v -19.338263 -32.472995 10.000000
v -19.666284 -32.538156 10.000000
v -20.000000 -32.560000 10.000000
v -20.333716 -32.538156 10.000000
v 20.977945 -22.333503 10.000000
v 20.661738 -22.472995 10.000000
v 20.333717 -22.538156 10.000000
v 20.000000 -22.560000 10.000000
v 19.666284 -22.538156 10.000000
v -19.022055 -22.333503 10.000000
v -19.338263 -22.472995 10.000000
v -19.666284 -22.538156 10.000000
v -20.000000 -22.560000 10.000000
v -20.333716 -22.538156 10.000000
v 20.977945 -32.333503 10.000000
v 20.661738 -32.472995 10.000000
v 20.333717 -32.538156 10.000000
v 20.000000 -32.560000 10.000000
v 19.666284 -32.538156 10.000000
v -25.000000 -15.000000 10.000000
v -25.000000 -35.000000 10.000000
v 25.000000 -35.000000 10.000000
v 25.000000 -15.000000 10.000000
v 11.401754 -15.000000 10.000000
v 11.255450 -15.858993 10.000000
v 11.044526 -16.704443 10.000000
v 10.770192 -17.531496 10.000000
v 10.434025 -18.335403 10.000000
v 10.037954 -19.111548 10.000000
v 9.584253 -19.855477 10.000000
v 9.075527 -20.562918 10.000000
v 8.514697 -21.229809 10.000000
v 7.904981 -21.852321 10.000000
v 7.249882 -22.426881 10.000000
v 6.553160 -22.950190 10.000000
v 5.818814 -23.419244 10.000000
v 5.051062 -23.831349 10.000000
v 4.254310 -24.184140 10.000000
v 3.433133 -24.475591 10.000000
v 2.592246 -24.704029 10.000000
v 1.736477 -24.868142 10.000000
v 0.870738 -24.966988 10.000000
v -0.000000 -25.000000 10.000000
v -0.870738 -24.966988 10.000000
v -1.736477 -24.868142 10.000000
v -2.592246 -24.704029 10.000000
v -3.433133 -24.475591 10.000000
v -4.254310 -24.184140 10.000000
v -5.051062 -23.831349 10.000000
v -5.818814 -23.419244 10.000000
v -6.553160 -22.950190 10.000000
v -7.249882 -22.426881 10.000000
v -7.904981 -21.852321 10.000000
v -8.514697 -21.229809 10.000000
v -9.075527 -20.562918 10.000000
v -9.584253 -19.855477 10.000000
v -10.037954 -19.111548 10.000000
v -10.434025 -18.335403 10.000000
v -10.770192 -17.531496 10.000000
v -11.044526 -16.704443 10.000000
v -11.255450 -15.858993 10.000000
v -11.401754 -15.000000 10.000000
v 20.661738 -32.472995 5.000000
v 20.333717 -32.538156 5.000000
v 20.000000 -32.560000 5.000000
v 19.666284 -32.538156 5.000000
v 20.977945 -32.333503 5.000000
v -19.338263 -22.472995 5.000000
v -19.666284 -22.538156 5.000000
v -20.000000 -22.560000 5.000000
v -20.333716 -22.538156 5.000000
v -19.022055 -22.333503 5.000000
v 20.661738 -22.472995 5.000000
v 20.333717 -22.538156 5.000000
v 20.000000 -22.560000 5.000000
v 19.666284 -22.538156 5.000000
v 20.977945 -22.333503 5.000000
v -19.338263 -32.472995 5.000000
v -19.666284 -32.538156 5.000000
v -20.000000 -32.560000 5.000000
v -20.333716 -32.538156 5.000000
v -19.022055 -32.333503 5.000000
v -25.000000 -35.000000 5.000000
v 25.000000 -35.000000 5.000000
v 25.000000 -15.000000 5.000000
v 11.401754 -15.000000 5.000000
v 11.255450 -15.858993 5.000000
v 11.044526 -16.704443 5.000000
v 10.770192 -17.531496 5.000000
v 10.434025 -18.335403 5.000000
v 10.037954 -19.111548 5.000000
v 9.584253 -19.855477 5.000000
v 9.075527 -20.562918 5.000000
v 8.514697 -21.229809 5.000000
v 7.904981 -21.852321 5.000000
v 7.249882 -22.426881 5.000000
v 6.553160 -22.950190 5.000000
v 5.818814 -23.419244 5.000000
v 5.051062 -23.831349 5.000000
v 4.254310 -24.184140 5.000000
v 3.433133 -24.475591 5.000000
v 2.592246 -24.704029 5.000000
v 1.736477 -24.868142 5.000000
v 0.870738 -24.966988 5.000000
v -0.000000 -25.000000 5.000000
v -0.870738 -24.966988 5.000000
v -1.736477 -24.868142 5.000000
v -2.592246 -24.704029 5.000000
v -3.433133 -24.475591 5.000000
v -4.254310 -24.184140 5.000000
v -5.051062 -23.831349 5.000000
v -5.818814 -23.419244 5.000000
v -6.553160 -22.950190 5.000000
v -7.249882 -22.426881 5.000000
v -7.904981 -21.852321 5.000000
v -8.514697 -21.229809 5.000000
v -9.075527 -20.562918 5.000000
v -9.584253 -19.855477 5.000000
v -10.037954 -19.111548 5.000000
v -10.434025 -18.335403 5.000000
v -10.770192 -17.531496 5.000000
v -11.044526 -16.704443 5.000000
v -11.255450 -15.858993 5.000000
v -11.401754 -15.000000 5.000000
v -25.000000 -15.000000 5.000000
vt 0.500000 -0.526082 0.000000
vt 0.000000 -0.526082 0.000000
vt 0.500000 -0.566833 0.000000
vt 0.000000 -0.566833 0.000000
vt 0.500000 -0.607583 0.000000
vt 0.000000 -0.607583 0.000000
vt 0.500000 -0.648334 0.000000
vt 0.000000 -0.648334 0.000000
vt 0.500000 -0.689085 0.000000
vt 0.000000 -0.689085 0.000000
vt 0.500000 -0.729836 0.000000
vt 0.000000 -0.729836 0.000000
vt 0.500000 -0.770587 0.000000
vt 0.000000 -0.770587 0.000000
vt 0.500000 -0.811338 0.000000
vt 0.000000 -0.811338 0.000000
vt 0.500000 -0.852089 0.000000
vt 0.000000 -0.852089 0.000000
vt 0.500000 -0.892840 0.000000
vt 0.000000 -0.892840 0.000000
vt 0.500000 -0.933591 0.000000
vt 0.000000 -0.933591 0.000000
vt 0.500000 -0.974342 0.000000
vt 0.000000 -0.974342 0.000000
vt 0.500000 -1.015093 0.000000
vt 0.000000 -1.015093 0.000000
vt 0.500000 -1.055844 0.000000
vt 0.000000 -1.055844 0.000000
vt 0.500000 -1.096595 0.000000
vt 0.000000 -1.096595 0.000000
vt 0.500000 -1.137346 0.000000
vt 0.000000 -1.137346 0.000000
vt 0.500000 -1.178097 0.000000
vt 0.000000 -1.178097 0.000000
vt 0.500000 -1.218848 0.000000
vt 0.000000 -1.218848 0.000000
vt 0.500000 -1.259599 0.000000
vt 0.000000 -1.259599 0.000000
vt 0.500000 -1.300350 0.000000
vt 0.000000 -1.300350 0.000000
vt 0.500000 -1.341101 0.000000
vt 0.000000 -1.341101 0.000000
vt 0.500000 -1.381852 0.000000
vt 0.000000 -1.381852 0.000000
vt 0.500000 -1.422603 0.000000
vt 0.000000 -1.422603 0.000000
vt 0.500000 -1.463354 0.000000
vt 0.000000 -1.463354 0.000000
vt 0.500000 -1.504105 0.000000
vt 0.000000 -1.504105 0.000000
vt 0.500000 -1.544856 0.000000
vt 0.000000 -1.544856 0.000000
vt 0.500000 -1.585607 0.000000
vt 0.000000 -1.585607 0.000000
vt 0.500000 -1.626358 0.000000
vt 0.000000 -1.626358 0.000000
vt 0.500000 -1.667109 0.000000
vt 0.000000 -1.667109 0.000000
vt 0.500000 -1.707860 0.000000
vt 0.000000 -1.707860 0.000000
vt 0.500000 -1.748611 0.000000
vt 0.000000 -1.748611 0.000000
vt 0.500000 -1.789362 0.000000
vt 0.000000 -1.789362 0.000000
vt 0.500000 -1.830113 0.000000
vt 0.000000 -1.830113 0.000000
vt 0.500000 -0.526082 0.000000
vt 0.000000 -0.526082 0.000000
vt 0.500000 -0.566833 0.000000
vt 0.000000 -0.566833 0.000000
vt 0.500000 -0.607583 0.000000
vt 0.000000 -0.607583 0.000000
vt 0.500000 -0.648334 0.000000
vt 0.000000 -0.648334 0.000000
vt 0.500000 -0.689085 0.000000
vt 0.000000 -0.689085 0.000000
vt 0.500000 -0.729836 0.000000
vt 0.000000 -0.729836 0.000000
vt 0.500000 -0.770587 0.000000
vt 0.000000 -0.770587 0.000000
vt 0.500000 -0.811338 0.000000
vt 0.000000 -0.811338 0.000000
vt 0.500000 -0.852089 0.000000
vt 0.000000 -0.852089 0.000000
vt 0.500000 -0.892840 0.000000
vt 0.000000 -0.892840 0.000000
vt 0.500000 -0.933591 0.000000
vt 0.000000 -0.933591 0.000000
vt 0.500000 -0.974342 0.000000
vt 0.000000 -0.974342 0.000000
vt 0.500000 -1.015093 0.000000
vt 0.000000 -1.015093 0.000000
vt 0.500000 -1.055844 0.000000
vt 0.000000 -1.055844 0.000000
vt 0.500000 -1.096595 0.000000
vt 0.000000 -1.096595 0.000000
vt 0.500000 -1.137346 0.000000
vt 0.000000 -1.137346 0.000000
vt 0.500000 -1.178097 0.000000
vt 0.000000 -1.178097 0.000000
vt 0.500000 -1.218848 0.000000
vt 0.000000 -1.218848 0.000000
vt 0.500000 -1.259599 0.000000
vt 0.000000 -1.259599 0.000000
vt 0.500000 -1.300350 0.000000
vt 0.000000 -1.300350 0.000000
vt 0.500000 -1.341101 0.000000
vt 0.000000 -1.341101 0.000000
vt 0.500000 -1.381852 0.000000
vt 0.000000 -1.381852 0.000000
vt 0.500000 -1.422603 0.000000
vt 0.000000 -1.422603 0.000000
vt 0.500000 -1.463354 0.000000
vt 0.000000 -1.463354 0.000000
vt 0.500000 -1.504105 0.000000
vt 0.000000 -1.504105 0.000000
vt 0.500000 -1.544856 0.000000
vt 0.000000 -1.544856 0.000000
vt 0.500000 -1.585607 0.000000
vt 0.000000 -1.585607 0.000000
vt 0.500000 -1.626358 0.000000
vt 0.000000 -1.626358 0.000000
vt 0.500000 -1.667109 0.000000
vt 0.000000 -1.667109 0.000000
vt 0.500000 -1.707860 0.000000
vt 0.000000 -1.707860 0.000000
vt 0.500000 -1.748611 0.000000
vt 0.000000 -1.748611 0.000000
vt 0.500000 -1.789362 0.000000
vt 0.000000 -1.789362 0.000000
vt 0.500000 -1.830113 0.000000
vt 0.000000 -1.830113 0.000000
vt 0.500000 -0.526082 0.000000
vt 0.000000 -0.526082 0.000000
vt 0.500000 -0.566833 0.000000
vt 0.000000 -0.566833 0.000000
vt 0.500000 -0.607583 0.000000
vt 0.000000 -0.607583 0.000000
vt 0.500000 -0.648334 0.000000
vt 0.000000 -0.648334 0.000000
vt 0.500000 -0.689085 0.000000
vt 0.000000 -0.689085 0.000000
vt 0.500000 -0.729836 0.000000
vt 0.000000 -0.729836 0.000000
vt 0.500000 -0.770587 0.000000
vt 0.000000 -0.770587 0.000000
vt 0.500000 -0.811338 0.000000
vt 0.000000 -0.811338 0.000000
vt 0.500000 -0.852089 0.000000
vt 0.000000 -0.852089 0.000000
vt 0.500000 -0.892840 0.000000
vt 0.000000 -0.892840 0.000000
vt 0.500000 -0.933591 0.000000
vt 0.000000 -0.933591 0.000000
vt 0.500000 -0.974342 0.000000
vt 0.000000 -0.974342 0.000000
vt 0.500000 -1.015093 0.000000
vt 0.000000 -1.015093 0.000000
vt 0.500000 -1.055844 0.000000
vt 0.000000 -1.055844 0.000000
vt 0.500000 -1.096595 0.000000
vt 0.000000 -1.096595 0.000000
vt 0.500000 -1.137346 0.000000
vt 0.000000 -1.137346 0.000000
vt 0.500000 -1.178097 0.000000
vt 0.000000 -1.178097 0.000000
vt 0.500000 -1.218848 0.000000
vt 0.000000 -1.218848 0.000000
vt 0.500000 -1.259599 0.000000
vt 0.000000 -1.259599 0.000000
vt 0.500000 -1.300350 0.000000
vt 0.000000 -1.300350 0.000000
vt 0.500000 -1.341101 0.000000
vt 0.000000 -1.341101 0.000000
vt 0.500000 -1.381852 0.000000
vt 0.000000 -1.381852 0.000000
vt 0.500000 -1.422603 0.000000
vt 0.000000 -1.422603 0.000000
vt 0.500000 -1.463354 0.000000
vt 0.000000 -1.463354 0.000000
vt 0.500000 -1.504105 0.000000
vt 0.000000 -1.504105 0.000000
vt 0.500000 -1.544856 0.000000
vt 0.000000 -1.544856 0.000000
vt 0.500000 -1.585607 0.000000
vt 0.000000 -1.585607 0.000000
vt 0.500000 -1.626358 0.000000
vt 0.000000 -1.626358 0.000000
vt 0.500000 -1.667109 0.000000
vt 0.000000 -1.667109 0.000000
vt 0.500000 -1.707860 0.000000
vt 0.000000 -1.707860 0.000000
vt 0.500000 -1.748611 0.000000
vt 0.000000 -1.748611 0.000000
vt 0.500000 -1.789362 0.000000
vt 0.000000 -1.789362 0.000000
vt 0.500000 -1.830113 0.000000
vt 0.000000 -1.830113 0.000000
vt 0.500000 -0.526082 0.000000
vt 0.000000 -0.526082 0.000000
vt 0.500000 -0.566833 0.000000
vt 0.000000 -0.566833 0.000000
vt 0.500000 -0.607583 0.000000
vt 0.000000 -0.607583 0.000000
vt 0.500000 -0.648334 0.000000
vt 0.000000 -0.648334 0.000000
vt 0.500000 -0.689085 0.000000
vt 0.000000 -0.689085 0.000000
vt 0.500000 -0.729836 0.000000
vt 0.000000 -0.729836 0.000000
vt 0.500000 -0.770587 0.000000
vt 0.000000 -0.770587 0.000000
vt 0.500000 -0.811338 0.000000
vt 0.000000 -0.811338 0.000000
vt 0.500000 -0.852089 0.000000
vt 0.000000 -0.852089 0.000000
vt 0.500000 -0.892840 0.000000
vt 0.000000 -0.892840 0.000000
vt 0.500000 -0.933591 0.000000
vt 0.000000 -0.933591 0.000000
vt 0.500000 -0.974342 0.000000
vt 0.000000 -0.974342 0.000000
vt 0.500000 -1.015093 0.000000
vt 0.000000 -1.015093 0.000000
vt 0.500000 -1.055844 0.000000
vt 0.000000 -1.055844 0.000000
vt 0.500000 -1.096595 0.000000
vt 0.000000 -1.096595 0.000000
vt 0.500000 -1.137346 0.000000
vt 0.000000 -1.137346 0.000000
vt 0.500000 -1.178097 0.000000
vt 0.000000 -1.178097 0.000000
vt 0.500000 -1.218848 0.000000
vt 0.000000 -1.218848 0.000000
vt 0.500000 -1.259599 0.000000
vt 0.000000 -1.259599 0.000000
vt 0.500000 -1.300350 0.000000
vt 0.000000 -1.300350 0.000000
vt 0.500000 -1.341101 0.000000
vt 0.000000 -1.341101 0.000000
vt 0.500000 -1.381852 0.000000
vt 0.000000 -1.381852 0.000000
vt 0.500000 -1.422603 0.000000
vt 0.000000 -1.422603 0.000000
vt 0.500000 -1.463354 0.000000
vt 0.000000 -1.463354 0.000000
vt 0.500000 -1.504105 0.000000
vt 0.000000 -1.504105 0.000000
vt 0.500000 -1.544856 0.000000
vt 0.000000 -1.544856 0.000000
vt 0.500000 -1.585607 0.000000
vt 0.000000 -1.585607 0.000000
vt 0.500000 -1.626358 0.000000
vt 0.000000 -1.626358 0.000000
vt 0.500000 -1.667109 0.000000
vt 0.000000 -1.667109 0.000000
vt 0.500000 -1.707860 0.000000
vt 0.000000 -1.707860 0.000000
vt 0.500000 -1.748611 0.000000
vt 0.000000 -1.748611 0.000000
vt 0.500000 -1.789362 0.000000
vt 0.000000 -1.789362 0.000000
vt 0.500000 -1.830113 0.000000
vt 0.000000 -1.830113 0.000000
vt 0.403898 0.000000 0.000000
vt 0.438423 0.000000 0.000000
vt 0.403898 0.500000 0.000000
vt 0.438423 0.500000 0.000000
vt 0.472949 0.000000 0.000000
vt 0.472949 0.500000 0.000000
vt 0.403898 0.000000 0.000000
vt 0.438423 0.000000 0.000000
vt 0.403898 0.500000 0.000000
vt 0.438423 0.500000 0.000000
vt 0.472949 0.000000 0.000000
vt 0.472949 0.500000 0.000000
vt 0.403898 0.000000 0.000000
vt 0.438423 0.000000 0.000000
vt 0.403898 0.500000 0.000000
vt 0.438423 0.500000 0.000000
vt 0.472949 0.000000 0.000000
vt 0.472949 0.500000 0.000000
vt 0.403898 0.000000 0.000000
vt 0.438423 0.000000 0.000000
vt 0.403898 0.500000 0.000000
vt 0.438423 0.500000 0.000000
vt 0.472949 0.000000 0.000000
vt 0.472949 0.500000 0.000000
vt 2.097755 0.733371 0.000000
vt 2.127144 0.715254 0.000000
vt 2.500000 1.000000 0.000000
vt 2.160391 0.691768 0.000000
vt 2.189385 0.663197 0.000000
vt 2.213359 0.630300 0.000000
vt 2.231676 0.593948 0.000000
vt 2.243851 0.555105 0.000000
vt 2.249561 0.514802 0.000000
vt 2.248655 0.474106 0.000000
vt 2.241157 0.434097 0.000000
vt 2.227266 0.395835 0.000000
vt 2.231676 -0.406052 0.000000
vt 2.243851 -0.444895 0.000000
vt 2.500000 -1.000000 0.000000
vt 2.249561 -0.485198 0.000000
vt 2.248655 -0.525894 0.000000
vt 2.213359 -0.369700 0.000000
vt 2.207349 0.360334 0.000000
vt 2.189385 -0.336803 0.000000
vt 2.181935 0.328536 0.000000
vt 2.160391 -0.308232 0.000000
vt 2.151697 0.301284 0.000000
vt 2.127144 -0.284746 0.000000
vt 2.117438 0.279301 0.000000
vt 2.097755 -0.266629 0.000000
vt 2.080066 0.263168 0.000000
vt 2.066174 -0.252701 0.000000
vt 2.040571 0.253314 0.000000
vt 2.033372 -0.246184 0.000000
vt 2.000000 0.250000 0.000000
vt 2.000000 -0.244000 0.000000
vt 1.966628 -0.246184 0.000000
vt 1.959429 0.253314 0.000000
vt 1.933826 -0.252701 0.000000
vt 1.919934 0.263168 0.000000
vt 0.655316 -0.204981 0.000000
vt 0.581881 -0.158076 0.000000
vt 1.882562 0.279301 0.000000
vt 0.505106 -0.116865 0.000000
vt 1.848303 0.301284 0.000000
vt 0.425431 -0.081586 0.000000
vt 1.818065 0.328536 0.000000
vt 0.343313 -0.052441 0.000000
vt 1.792651 0.360334 0.000000
vt 0.259225 -0.029597 0.000000
vt 1.772734 0.395835 0.000000
vt 1.758843 0.434097 0.000000
vt 0.173648 -0.013186 0.000000
vt 1.751345 0.474106 0.000000
vt 0.087074 -0.003301 0.000000
vt 1.750439 0.514802 0.000000
vt 1.756149 0.555105 0.000000
vt 0.000000 -0.000000 0.000000
vt 1.768324 0.593948 0.000000
vt -1.768324 0.593948 0.000000
vt 1.786641 0.630300 0.000000
vt -1.786641 0.630300 0.000000
vt 1.810615 0.663197 0.000000
vt -1.810615 0.663197 0.000000
vt 1.839609 0.691768 0.000000
vt -1.839609 0.691768 0.000000
vt 1.872856 0.715254 0.000000
vt -1.872856 0.715254 0.000000
vt -1.902245 0.733371 0.000000
vt 1.902206 0.733350 0.000000
vt 1.933826 0.747299 0.000000
vt 1.966628 0.753816 0.000000
vt -1.933826 0.747300 0.000000
vt 2.000000 0.756000 0.000000
vt 2.033372 0.753816 0.000000
vt 2.066174 0.747299 0.000000
vt -1.902245 -0.266629 0.000000
vt -1.872856 -0.284746 0.000000
vt -0.724988 -0.257312 0.000000
vt -1.839609 -0.308232 0.000000
vt -0.790498 -0.314768 0.000000
vt -1.810615 -0.336803 0.000000
vt -0.851470 -0.377019 0.000000
vt -1.786641 -0.369700 0.000000
vt -1.768324 -0.406052 0.000000
vt -0.907553 -0.443708 0.000000
vt -1.756149 -0.444895 0.000000
vt -0.958425 -0.514452 0.000000
vt -1.750439 -0.485198 0.000000
vt -1.751345 -0.525894 0.000000
vt -1.003795 -0.588845 0.000000
vt -1.758843 -0.565903 0.000000
vt -1.043403 -0.666460 0.000000
vt -1.772735 -0.604165 0.000000
vt -1.792651 -0.639666 0.000000
vt -1.077019 -0.746850 0.000000
vt -1.818065 -0.671463 0.000000
vt -1.848303 -0.698716 0.000000
vt -1.104453 -0.829556 0.000000
vt -1.882562 -0.720699 0.000000
vt -1.125545 -0.914101 0.000000
vt -1.919934 -0.736832 0.000000
vt -1.959429 -0.746686 0.000000
vt -2.000000 -0.750000 0.000000
vt -2.500000 -1.000000 0.000000
vt -1.140175 -1.000000 0.000000
vt -2.040571 -0.746686 0.000000
vt -2.080066 -0.736832 0.000000
vt -2.117438 -0.720699 0.000000
vt -2.151697 -0.698716 0.000000
vt -2.181935 -0.671463 0.000000
vt -2.207349 -0.639666 0.000000
vt -2.227266 -0.604165 0.000000
vt -2.241157 -0.565903 0.000000
vt -2.248655 -0.525894 0.000000
vt -2.249561 -0.485198 0.000000
vt -2.243851 -0.444895 0.000000
vt -2.500000 1.000000 0.000000
vt -2.241157 0.434097 0.000000
vt -2.248655 0.474106 0.000000
vt -2.231676 -0.406052 0.000000
vt -2.227266 0.395835 0.000000
vt -2.213359 -0.369700 0.000000
vt -2.207349 0.360334 0.000000
vt -2.189385 -0.336803 0.000000
vt -2.181935 0.328537 0.000000
vt -2.160391 -0.308232 0.000000
vt -2.151697 0.301284 0.000000
vt -2.127144 -0.284746 0.000000
vt -2.117438 0.279301 0.000000
vt -2.097794 -0.266650 0.000000
vt -2.080066 0.263168 0.000000
vt -2.066174 -0.252700 0.000000
vt -2.040571 0.253314 0.000000
vt -2.033372 -0.246184 0.000000
vt -2.000000 0.250000 0.000000
vt -2.000000 -0.244000 0.000000
vt -1.966628 -0.246184 0.000000
vt -1.959429 0.253314 0.000000
vt -1.933826 -0.252700 0.000000
vt -1.919934 0.263168 0.000000
vt -0.655316 -0.204981 0.000000
vt -0.581881 -0.158076 0.000000
vt 2.241157 -0.565903 0.000000
vt 2.227266 -0.604165 0.000000
vt 2.207349 -0.639666 0.000000
vt 2.181935 -0.671464 0.000000
vt 2.151697 -0.698716 0.000000
vt 2.117438 -0.720699 0.000000
vt 2.080066 -0.736832 0.000000
vt 2.040571 -0.746686 0.000000
vt 2.000000 -0.750000 0.000000
vt 1.959429 -0.746686 0.000000
vt 1.140175 -1.000000 0.000000
vt 1.125545 -0.914101 0.000000
vt 1.919934 -0.736832 0.000000
vt 1.882562 -0.720699 0.000000
vt 1.104453 -0.829556 0.000000
vt 1.848303 -0.698716 0.000000
vt 1.077019 -0.746850 0.000000
vt 1.818065 -0.671464 0.000000
vt 1.792651 -0.639666 0.000000
vt 1.043403 -0.666460 0.000000
vt 1.772734 -0.604165 0.000000
vt 1.758843 -0.565903 0.000000
vt 1.003795 -0.588845 0.000000
vt 1.751345 -0.525894 0.000000
vt 0.958425 -0.514452 0.000000
vt 1.750439 -0.485198 0.000000
vt 1.756149 -0.444895 0.000000
vt 0.907553 -0.443708 0.000000
vt 1.768324 -0.406052 0.000000
vt 0.851470 -0.377019 0.000000
vt 1.786641 -0.369700 0.000000
vt 1.810615 -0.336803 0.000000
vt 0.790498 -0.314768 0.000000
vt 1.839609 -0.308232 0.000000
vt 0.724988 -0.257312 0.000000
vt 1.872856 -0.284746 0.000000
vt 1.902206 -0.266650 0.000000
vt -1.756149 0.555105 0.000000
vt -0.087074 -0.003301 0.000000
vt -1.750439 0.514802 0.000000
vt -1.751345 0.474106 0.000000
vt -0.173648 -0.013186 0.000000
vt -1.758843 0.434097 0.000000
vt -0.259225 -0.029597 0.000000
vt -1.772735 0.395835 0.000000
vt -1.792651 0.360334 0.000000
vt -0.343313 -0.052441 0.000000
vt -1.818065 0.328537 0.000000
vt -0.425431 -0.081586 0.000000
vt -1.848303 0.301284 0.000000
vt -0.505106 -0.116865 0.000000
vt -1.882562 0.279301 0.000000
vt -2.249561 0.514802 0.000000
vt -2.243851 0.555105 0.000000
vt -2.231676 0.593948 0.000000
vt -2.213359 0.630300 0.000000
vt -2.189385 0.663197 0.000000
vt -2.160391 0.691768 0.000000
vt -2.127144 0.715254 0.000000
vt -2.097794 0.733350 0.000000
vt -2.066174 0.747300 0.000000
vt -2.033372 0.753816 0.000000
vt -2.000000 0.756000 0.000000
vt -1.966628 0.753816 0.000000
vt 0.500000 -0.335190 0.000000
vt -0.000000 -0.335190 0.000000
vt 0.500000 -0.368657 0.000000
vt -0.000000 -0.368657 0.000000
vt 0.500000 -0.402124 0.000000
vt 0.000000 -0.402124 0.000000
vt 0.500000 -0.435591 0.000000
vt 0.000000 -0.435591 0.000000
vt 0.500000 -0.469058 0.000000
vt 0.000000 -0.469058 0.000000
vt 0.069043 0.500000 0.000000
vt 0.034521 0.500000 0.000000
vt 0.069043 0.000000 0.000000
vt 0.034521 0.000000 0.000000
vt 0.000000 0.500000 0.000000
vt 0.000000 0.000000 0.000000
vt 0.500000 -0.335190 0.000000
vt -0.000000 -0.335190 0.000000
vt 0.500000 -0.368657 0.000000
vt -0.000000 -0.368657 0.000000
vt 0.500000 -0.402124 0.000000
vt 0.000000 -0.402124 0.000000
vt 0.500000 -0.435591 0.000000
vt -0.000000 -0.435591 0.000000
vt 0.500000 -0.469058 0.000000
vt 0.000000 -0.469058 0.000000
vt 0.069043 0.500000 0.000000
vt 0.034521 0.500000 0.000000
vt 0.069043 0.000000 0.000000
vt 0.034521 0.000000 0.000000
vt 0.000000 0.500000 0.000000
vt 0.000000 0.000000 0.000000
vt 0.500000 -0.335190 0.000000
vt -0.000000 -0.335190 0.000000
vt 0.500000 -0.368657 0.000000
vt -0.000000 -0.368657 0.000000
vt 0.500000 -0.402124 0.000000
vt 0.000000 -0.402124 0.000000
vt 0.500000 -0.435591 0.000000
vt 0.000000 -0.435591 0.000000
vt 0.500000 -0.469058 0.000000
vt -0.000000 -0.469058 0.000000
vt 0.069043 0.500000 0.000000
vt 0.034521 0.500000 0.000000
vt 0.069043 0.000000 0.000000
vt 0.034521 0.000000 0.000000
vt 0.000000 0.500000 0.000000
vt 0.000000 0.000000 0.000000
vt 0.500000 -0.335190 0.000000
vt -0.000000 -0.335190 0.000000
vt 0.500000 -0.368657 0.000000
vt -0.000000 -0.368657 0.000000
vt 0.500000 -0.402124 0.000000
vt 0.000000 -0.402124 0.000000
vt 0.500000 -0.435591 0.000000
vt 0.000000 -0.435591 0.000000
vt 0.500000 -0.469058 0.000000
vt 0.000000 -0.469058 0.000000
vt 0.069043 0.500000 0.000000
vt 0.034521 0.500000 0.000000
vt 0.069043 0.000000 0.000000
vt 0.034521 0.000000 0.000000
vt 0.000000 0.500000 0.000000
vt 0.000000 0.000000 0.000000
vt -0.000000 0.000000 0.000000
vt 5.000000 0.000000 0.000000
vt 0.000000 0.500000 0.000000
vt 5.000000 0.500000 0.000000
vt -0.000000 0.000000 0.000000
vt 2.000000 0.000000 0.000000
vt 0.000000 0.500000 0.000000
vt 2.000000 0.500000 0.000000
vt 0.000000 0.000000 0.000000
vt 1.359825 0.000000 0.000000
vt 0.000000 0.500000 0.000000
vt 1.359825 0.500000 0.000000
vt 0.500000 -1.494489 0.000000
vt -0.000000 -1.494489 0.000000
vt 0.500000 -1.581646 0.000000
vt -0.000000 -1.581646 0.000000
vt 0.500000 -1.668803 0.000000
vt -0.000000 -1.668803 0.000000
vt 0.500000 -1.755960 0.000000
vt -0.000000 -1.755960 0.000000
vt 0.500000 -1.843117 0.000000
vt -0.000000 -1.843117 0.000000
vt 0.500000 -1.930275 0.000000
vt -0.000000 -1.930275 0.000000
vt 0.500000 -2.017432 0.000000
vt -0.000000 -2.017432 0.000000
vt 0.500000 -2.104589 0.000000
vt -0.000000 -2.104589 0.000000
vt 0.500000 -2.191746 0.000000
vt -0.000000 -2.191746 0.000000
vt 0.500000 -2.278904 0.000000
vt -0.000000 -2.278904 0.000000
vt 0.500000 -2.366061 0.000000
vt -0.000000 -2.366061 0.000000
vt 0.500000 -2.453218 0.000000
vt -0.000000 -2.453218 0.000000
vt 0.500000 -2.540375 0.000000
vt -0.000000 -2.540375 0.000000
vt 0.500000 -2.627532 0.000000
vt -0.000000 -2.627532 0.000000
vt 0.500000 -2.714690 0.000000
vt -0.000000 -2.714690 0.000000
vt 0.500000 -2.801847 0.000000
vt -0.000000 -2.801847 0.000000
vt 0.500000 -2.889004 0.000000
vt -0.000000 -2.889004 0.000000
vt 0.500000 -2.976161 0.000000
vt -0.000000 -2.976161 0.000000
vt 0.500000 -3.063319 0.000000
vt -0.000000 -3.063319 0.000000
vt 0.500000 -3.150476 0.000000
vt -0.000000 -3.150476 0.000000
vt 0.500000 -3.237633 0.000000
vt -0.000000 -3.237633 0.000000
vt 0.500000 -3.324790 0.000000
vt -0.000000 -3.324790 0.000000
vt 0.500000 -3.411947 0.000000
vt 0.000000 -3.411947 0.000000
vt 0.500000 -3.499105 0.000000
vt -0.000000 -3.499105 0.000000
vt 0.500000 -3.586262 0.000000
vt -0.000000 -3.586262 0.000000
vt 0.500000 -3.673419 0.000000
vt 0.000000 -3.673419 0.000000
vt 0.500000 -3.760576 0.000000
vt -0.000000 -3.760576 0.000000
vt 0.500000 -3.847733 0.000000
vt -0.000000 -3.847733 0.000000
vt 0.500000 -3.934891 0.000000
vt -0.000000 -3.934891 0.000000
vt 0.500000 -4.022048 0.000000
vt -0.000000 -4.022048 0.000000
vt 0.500000 -4.109205 0.000000
vt 0.000000 -4.109205 0.000000
vt 0.500000 -4.196362 0.000000
vt -0.000000 -4.196362 0.000000
vt 0.500000 -4.283520 0.000000
vt -0.000000 -4.283520 0.000000
vt 0.500000 -4.370677 0.000000
vt -0.000000 -4.370677 0.000000
vt 0.500000 -4.457834 0.000000
vt -0.000000 -4.457834 0.000000
vt 0.500000 -4.544991 0.000000
vt 0.000000 -4.544991 0.000000
vt 0.500000 -4.632148 0.000000
vt -0.000000 -4.632148 0.000000
vt 0.500000 -4.719306 0.000000
vt -0.000000 -4.719306 0.000000
vt 0.500000 -4.806463 0.000000
vt -0.000000 -4.806463 0.000000
vt 0.000000 0.000000 0.000000
vt 1.359825 0.000000 0.000000
vt 0.000000 0.500000 0.000000
vt 1.359825 0.500000 0.000000
vt 0.000000 0.000000 0.000000
vt 2.000000 0.000000 0.000000
vt 0.000000 0.500000 0.000000
vt 2.000000 0.500000 0.000000
vt -1.902206 -0.266650 0.000000
vt -1.872856 -0.284746 0.000000
vt -0.724988 -0.257312 0.000000
vt -1.839609 -0.308232 0.000000
vt -0.790498 -0.314768 0.000000
vt -1.810615 -0.336803 0.000000
vt -0.851470 -0.377019 0.000000
vt -1.786641 -0.369700 0.000000
vt -1.768324 -0.406052 0.000000
vt -0.907553 -0.443708 0.000000
vt -1.756149 -0.444895 0.000000
vt -0.958425 -0.514452 0.000000
vt -1.750439 -0.485198 0.000000
vt -1.751345 -0.525894 0.000000
vt -1.003795 -0.588845 0.000000
vt -1.758843 -0.565903 0.000000
vt -1.043403 -0.666460 0.000000
vt -1.772734 -0.604165 0.000000
vt -1.792651 -0.639666 0.000000
vt -1.077019 -0.746850 0.000000
vt -1.818065 -0.671464 0.000000
vt -1.848303 -0.698716 0.000000
vt -1.104453 -0.829556 0.000000
vt -1.882562 -0.720699 0.000000
vt -1.125545 -0.914101 0.000000
vt -1.919934 -0.736832 0.000000
vt -1.959429 -0.746686 0.000000
vt -2.000000 -0.750000 0.000000
vt -2.500000 -1.000000 0.000000
vt -1.140175 -1.000000 0.000000
vt -2.040571 -0.746686 0.000000
vt -2.080066 -0.736832 0.000000
vt -2.117438 -0.720699 0.000000
vt -2.151697 -0.698716 0.000000
vt -2.181935 -0.671464 0.000000
vt -2.207349 -0.639666 0.000000
vt -2.227266 -0.604165 0.000000
vt -2.241157 -0.565903 0.000000
vt -2.248655 -0.525894 0.000000
vt -2.249561 -0.485198 0.000000
vt -2.243851 -0.444895 0.000000
vt -2.500000 1.000000 0.000000
vt -2.241157 0.434097 0.000000
vt -2.248655 0.474106 0.000000
vt -2.231676 -0.406052 0.000000
vt -2.227266 0.395835 0.000000
vt -2.213359 -0.369700 0.000000
vt -2.207349 0.360334 0.000000
vt -2.189385 -0.336803 0.000000
vt -2.181935 0.328536 0.000000
vt -2.160391 -0.308232 0.000000
vt -2.151697 0.301284 0.000000
vt -2.127144 -0.284746 0.000000
vt -2.117438 0.279301 0.000000
vt -2.097755 -0.266629 0.000000
vt -2.080066 0.263168 0.000000
vt -2.066174 -0.252701 0.000000
vt -2.040571 0.253314 0.000000
vt -2.033372 -0.246184 0.000000
vt -2.000000 0.250000 0.000000
vt -2.000000 -0.244000 0.000000
vt -1.966628 -0.246184 0.000000
vt -1.959429 0.253314 0.000000
vt -1.933826 -0.252701 0.000000
vt -1.919934 0.263168 0.000000
vt -0.655316 -0.204981 0.000000
vt -0.581881 -0.158076 0.000000
vt 2.160391 -0.308232 0.000000
vt 2.151697 0.301284 0.000000
vt 2.127144 -0.284746 0.000000
vt 2.117438 0.279301 0.000000
vt 2.097794 -0.266650 0.000000
vt 2.080066 0.263168 0.000000
vt 2.066174 -0.252700 0.000000
vt 2.040571 0.253314 0.000000
vt 2.033372 -0.246184 0.000000
vt 2.000000 0.250000 0.000000
vt 2.000000 -0.244000 0.000000
vt 1.966628 -0.246184 0.000000
vt 1.959429 0.253314 0.000000
vt 1.933826 -0.252700 0.000000
vt 1.919934 0.263168 0.000000
vt 0.655316 -0.204981 0.000000
vt 0.581881 -0.158076 0.000000
vt 1.882562 0.279301 0.000000
vt 0.505106 -0.116865 0.000000
vt 1.848303 0.301284 0.000000
vt 0.425431 -0.081586 0.000000
vt 1.818065 0.328537 0.000000
vt 0.343313 -0.052441 0.000000
vt 1.792651 0.360334 0.000000
vt 0.259225 -0.029597 0.000000
vt 1.772735 0.395835 0.000000
vt 1.758843 0.434097 0.000000
vt 2.181935 0.328537 0.000000
vt 2.189385 -0.336803 0.000000
vt 2.207349 0.360334 0.000000
vt 2.213359 -0.369700 0.000000
vt 2.227266 0.395835 0.000000
vt 2.231676 -0.406052 0.000000
vt 2.241157 0.434097 0.000000
vt 2.243851 -0.444895 0.000000
vt 2.500000 1.000000 0.000000
vt 2.500000 -1.000000 0.000000
vt 2.249561 -0.485198 0.000000
vt 2.248655 -0.525894 0.000000
vt 2.241157 -0.565903 0.000000
vt 2.227266 -0.604165 0.000000
vt 2.207349 -0.639666 0.000000
vt 2.181935 -0.671463 0.000000
vt 2.151697 -0.698716 0.000000
vt 2.117438 -0.720699 0.000000
vt 2.080066 -0.736832 0.000000
vt 2.040571 -0.746686 0.000000
vt 2.000000 -0.750000 0.000000
vt 1.959429 -0.746686 0.000000
vt 1.140175 -1.000000 0.000000
vt 1.125545 -0.914101 0.000000
vt 1.919934 -0.736832 0.000000
vt 1.882562 -0.720699 0.000000
vt 1.104453 -0.829556 0.000000
vt 1.848303 -0.698716 0.000000
vt 1.077019 -0.746850 0.000000
vt 1.818065 -0.671463 0.000000
vt 1.792651 -0.639666 0.000000
vt 1.043403 -0.666460 0.000000
vt 1.772735 -0.604165 0.000000
vt 1.758843 -0.565903 0.000000
vt 1.003795 -0.588845 0.000000
vt 1.751345 -0.525894 0.000000
vt 0.958425 -0.514452 0.000000
vt 1.750439 -0.485198 0.000000
vt 1.756149 -0.444895 0.000000
vt 0.907553 -0.443708 0.000000
vt 1.768324 -0.406052 0.000000
vt 0.851470 -0.377019 0.000000
vt 1.786641 -0.369700 0.000000
vt 1.810615 -0.336803 0.000000
vt 0.790498 -0.314768 0.000000
vt 1.839609 -0.308232 0.000000
vt 0.724988 -0.257312 0.000000
vt 1.872856 -0.284746 0.000000
vt 1.902245 -0.266629 0.000000
vt -1.839609 0.691768 0.000000
vt 1.839609 0.691768 0.000000
vt -1.872856 0.715254 0.000000
vt 1.872856 0.715254 0.000000
vt 1.902245 0.733371 0.000000
vt 1.810615 0.663197 0.000000
vt -1.810615 0.663197 0.000000
vt 1.786641 0.630300 0.000000
vt -1.786641 0.630300 0.000000
vt 1.768324 0.593948 0.000000
vt -1.768324 0.593948 0.000000
vt -0.000000 -0.000000 0.000000
vt -1.756149 0.555105 0.000000
vt -0.087074 -0.003301 0.000000
vt -1.750439 0.514802 0.000000
vt -1.751345 0.474106 0.000000
vt -0.173648 -0.013186 0.000000
vt -1.758843 0.434097 0.000000
vt -0.259225 -0.029597 0.000000
vt -1.772734 0.395835 0.000000
vt -1.792651 0.360334 0.000000
vt -0.343313 -0.052441 0.000000
vt -1.818065 0.328536 0.000000
vt -0.425431 -0.081586 0.000000
vt -1.848303 0.301284 0.000000
vt -0.505106 -0.116865 0.000000
vt -1.882562 0.279301 0.000000
vt -2.249561 0.514802 0.000000
vt -2.243851 0.555105 0.000000
vt -2.231676 0.593948 0.000000
vt -2.213359 0.630300 0.000000
vt -2.189385 0.663197 0.000000
vt -2.160391 0.691768 0.000000
vt -2.127144 0.715254 0.000000
vt -2.097755 0.733371 0.000000
vt -2.066174 0.747299 0.000000
vt -2.033372 0.753816 0.000000
vt -2.000000 0.756000 0.000000
vt -1.966628 0.753816 0.000000
vt -1.933826 0.747299 0.000000
vt 1.933826 0.747300 0.000000
vt 1.966628 0.753816 0.000000
vt 2.000000 0.756000 0.000000
vt -1.902206 0.733350 0.000000
vt 2.097794 0.733350 0.000000
vt 2.127144 0.715254 0.000000
vt 2.160391 0.691768 0.000000
vt 2.189385 0.663197 0.000000
vt 2.213359 0.630300 0.000000
vt 2.231676 0.593948 0.000000
vt 2.243851 0.555105 0.000000
vt 2.249561 0.514802 0.000000
vt 2.248655 0.474106 0.000000
vt 0.173648 -0.013186 0.000000
vt 1.751345 0.474106 0.000000
vt 0.087074 -0.003301 0.000000
vt 1.750439 0.514802 0.000000
vt 1.756149 0.555105 0.000000
vt 2.033372 0.753816 0.000000
vt 2.066174 0.747300 0.000000
vn 0.050858 0.086102 0.000000
vn 0.050858 0.086102 0.000000
vn 0.064156 0.076707 0.000000
vn 0.064156 0.076707 0.000000
vn 0.075754 0.065279 0.000000
vn 0.075754 0.065279 0.000000
vn 0.085344 0.052120 0.000000
vn 0.085344 0.052120 0.000000
vn 0.092670 0.037579 0.000000
vn 0.092670 0.037579 0.000000
vn 0.097540 0.022042 0.000000
vn 0.097540 0.022042 0.000000
vn 0.099825 0.005921 0.000000
vn 0.099825 0.005921 0.000000
vn 0.099462 -0.010357 0.000000
vn 0.099462 -0.010357 0.000000
vn 0.096463 -0.026361 0.000000
vn 0.096463 -0.026361 0.000000
vn 0.090906 -0.041666 0.000000
vn 0.090906 -0.041666 0.000000
vn 0.082939 -0.055866 0.000000
vn 0.082939 -0.055866 0.000000
vn 0.072774 -0.068585 0.000000
vn 0.072774 -0.068585 0.000000
vn 0.060679 -0.079486 0.000000
vn 0.060679 -0.079486 0.000000
vn 0.046975 -0.088280 0.000000
vn 0.046975 -0.088280 0.000000
vn 0.032026 -0.094733 0.000000
vn 0.032026 -0.094733 0.000000
vn 0.016228 -0.098674 0.000000
vn 0.016228 -0.098674 0.000000
vn 0.000000 -0.100000 0.000000
vn 0.000000 -0.100000 0.000000
vn -0.016228 -0.098674 0.000000
vn -0.016228 -0.098674 0.000000
vn -0.032026 -0.094733 0.000000
vn -0.032026 -0.094733 0.000000
vn -0.046975 -0.088280 0.000000
vn -0.046975 -0.088280 0.000000
vn -0.060679 -0.079486 0.000000
vn -0.060679 -0.079486 0.000000
vn -0.072774 -0.068585 0.000000
vn -0.072774 -0.068585 0.000000
vn -0.082939 -0.055866 0.000000
vn -0.082939 -0.055866 0.000000
vn -0.090906 -0.041666 0.000000
vn -0.090906 -0.041666 0.000000
vn -0.096463 -0.026361 0.000000
vn -0.096463 -0.026361 0.000000
vn -0.099462 -0.010357 0.000000
vn -0.099462 -0.010357 0.000000
vn -0.099825 0.005921 0.000000
vn -0.099825 0.005921 0.000000
vn -0.097540 0.022042 0.000000
vn -0.097540 0.022042 0.000000
vn -0.092670 0.037579 0.000000
vn -0.092670 0.037579 0.000000
vn -0.085344 0.052120 0.000000
vn -0.085344 0.052120 0.000000
vn -0.075754 0.065279 0.000000
vn -0.075754 0.065279 0.000000
vn -0.064156 0.076707 0.000000
vn -0.064156 0.076707 0.000000
vn -0.050858 0.086102 0.000000
vn -0.050858 0.086102 0.000000
vn 0.050858 0.086102 0.000000
vn 0.050858 0.086102 0.000000
vn 0.064156 0.076707 0.000000
vn 0.064156 0.076707 0.000000
vn 0.075754 0.065279 0.000000
vn 0.075754 0.065279 0.000000
vn 0.085344 0.052120 0.000000
vn 0.085344 0.052120 0.000000
vn 0.092670 0.037579 0.000000
vn 0.092670 0.037579 0.000000
vn 0.097540 0.022042 0.000000
vn 0.097540 0.022042 0.000000
vn 0.099825 0.005921 0.000000
vn 0.099825 0.005921 0.000000
vn 0.099462 -0.010357 0.000000
vn 0.099462 -0.010357 0.000000
vn 0.096463 -0.026361 0.000000
vn 0.096463 -0.026361 0.000000
vn 0.090906 -0.041666 0.000000
vn 0.090906 -0.041666 0.000000
vn 0.082939 -0.055866 0.000000
vn 0.082939 -0.055866 0.000000
vn 0.072774 -0.068585 0.000000
vn 0.072774 -0.068585 0.000000
vn 0.060679 -0.079486 0.000000
vn 0.060679 -0.079486 0.000000
vn 0.046975 -0.088280 0.000000
vn 0.046975 -0.088280 0.000000
vn 0.032026 -0.094733 0.000000
vn 0.032026 -0.094733 0.000000
vn 0.016228 -0.098674 0.000000
vn 0.016228 -0.098674 0.000000
vn -0.000000 -0.100000 0.000000
vn -0.000000 -0.100000 0.000000
vn -0.016228 -0.098674 0.000000
vn -0.016228 -0.098674 0.000000
vn -0.032026 -0.094733 0.000000
vn -0.032026 -0.094733 0.000000
vn -0.046975 -0.088280 0.000000
vn -0.046975 -0.088280 0.000000
vn -0.060679 -0.079486 0.000000
vn -0.060679 -0.079486 0.000000
vn -0.072774 -0.068585 0.000000
vn -0.072774 -0.068585 0.000000
vn -0.082939 -0.055866 0.000000
vn -0.082939 -0.055866 0.000000
vn -0.090906 -0.041666 0.000000
vn -0.090906 -0.041666 0.000000
vn -0.096463 -0.026361 0.000000
vn -0.096463 -0.026361 0.000000
vn -0.099462 -0.010357 0.000000
vn -0.099462 -0.010357 0.000000
vn -0.099825 0.005921 0.000000
vn -0.099825 0.005921 0.000000
vn -0.097540 0.022042 0.000000
vn -0.097540 0.022042 0.000000
vn -0.092670 0.037579 0.000000
vn -0.092670 0.037579 0.000000
vn -0.085344 0.052120 0.000000
vn -0.085344 0.052120 0.000000
vn -0.075754 0.065279 0.000000
vn -0.075754 0.065279 0.000000
vn -0.064156 0.076707 0.000000
vn -0.064156 0.076707 0.000000
vn -0.050858 0.086102 0.000000
vn -0.050858 0.086102 0.000000
vn 0.050858 0.086102 0.000000
vn 0.050858 0.086102 0.000000
vn 0.064156 0.076707 0.000000
vn 0.064156 0.076707 0.000000
vn 0.075754 0.065279 0.000000
vn 0.075754 0.065279 0.000000
vn 0.085344 0.052120 0.000000
vn 0.085344 0.052120 0.000000
vn 0.092670 0.037579 0.000000
vn 0.092670 0.037579 0.000000
vn 0.097540 0.022042 0.000000
vn 0.097540 0.022042 0.000000
vn 0.099825 0.005921 0.000000
vn 0.099825 0.005921 0.000000
vn 0.099462 -0.010357 0.000000
vn 0.099462 -0.010357 0.000000
vn 0.096463 -0.026361 0.000000
vn 0.096463 -0.026361 0.000000
vn 0.090906 -0.041666 0.000000
vn 0.090906 -0.041666 0.000000
vn 0.082939 -0.055866 0.000000
vn 0.082939 -0.055866 0.000000
vn 0.072774 -0.068585 0.000000
vn 0.072774 -0.068585 0.000000
vn 0.060679 -0.079486 0.000000
vn 0.060679 -0.079486 0.000000
vn 0.046975 -0.088280 0.000000
vn 0.046975 -0.088280 0.000000
vn 0.032026 -0.094733 0.000000
vn 0.032026 -0.094733 0.000000
vn 0.016228 -0.098674 0.000000
vn 0.016228 -0.098674 0.000000
vn -0.000000 -0.100000 0.000000
vn -0.000000 -0.100000 0.000000
vn -0.016228 -0.098674 0.000000
vn -0.016228 -0.098674 0.000000
vn -0.032026 -0.094733 0.000000
vn -0.032026 -0.094733 0.000000
vn -0.046975 -0.088280 0.000000
vn -0.046975 -0.088280 0.000000
vn -0.060679 -0.079486 0.000000
vn -0.060679 -0.079486 0.000000
vn -0.072774 -0.068585 0.000000
vn -0.072774 -0.068585 0.000000
vn -0.082939 -0.055866 0.000000
vn -0.082939 -0.055866 0.000000
vn -0.090906 -0.041666 0.000000
vn -0.090906 -0.041666 0.000000
vn -0.096463 -0.026361 0.000000
vn -0.096463 -0.026361 0.000000
vn -0.099462 -0.010357 0.000000
vn -0.099462 -0.010357 0.000000
vn -0.099825 0.005921 0.000000
vn -0.099825 0.005921 0.000000
vn -0.097540 0.022042 0.000000
vn -0.097540 0.022042 0.000000
vn -0.092670 0.037579 0.000000
vn -0.092670 0.037579 0.000000
vn -0.085344 0.052120 0.000000
vn -0.085344 0.052120 0.000000
vn -0.075754 0.065279 0.000000
vn -0.075754 0.065279 0.000000
vn -0.064156 0.076707 0.000000
vn -0.064156 0.076707 0.000000
vn -0.050858 0.086102 0.000000
vn -0.050858 0.086102 0.000000
vn 0.050858 0.086102 0.000000
vn 0.050858 0.086102 0.000000
vn 0.064156 0.076707 0.000000
vn 0.064156 0.076707 0.000000
vn 0.075754 0.065279 0.000000
vn 0.075754 0.065279 0.000000
vn 0.085344 0.052120 0.000000
vn 0.085344 0.052120 0.000000
vn 0.092670 0.037579 0.000000
vn 0.092670 0.037579 0.000000
vn 0.097540 0.022042 0.000000
vn 0.097540 0.022042 0.000000
vn 0.099825 0.005921 0.000000
vn 0.099825 0.005921 0.000000
vn 0.099462 -0.010357 0.000000
vn 0.099462 -0.010357 0.000000
vn 0.096463 -0.026361 0.000000
vn 0.096463 -0.026361 0.000000
vn 0.090906 -0.041666 0.000000
vn 0.090906 -0.041666 0.000000
vn 0.082939 -0.055866 0.000000
vn 0.082939 -0.055866 0.000000
vn 0.072774 -0.068585 0.000000
vn 0.072774 -0.068585 0.000000
vn 0.060679 -0.079486 0.000000
vn 0.060679 -0.079486 0.000000
vn 0.046975 -0.088280 0.000000
vn 0.046975 -0.088280 0.000000
vn 0.032026 -0.094733 0.000000
vn 0.032026 -0.094733 0.000000
vn 0.016228 -0.098674 0.000000
vn 0.016228 -0.098674 0.000000
vn 0.000000 -0.100000 0.000000
vn 0.000000 -0.100000 0.000000
vn -0.016228 -0.098674 0.000000
vn -0.016228 -0.098674 0.000000
vn -0.032026 -0.094733 0.000000
vn -0.032026 -0.094733 0.000000
vn -0.046975 -0.088280 0.000000
vn -0.046975 -0.088280 0.000000
vn -0.060679 -0.079486 0.000000
vn -0.060679 -0.079486 0.000000
vn -0.072774 -0.068585 0.000000
vn -0.072774 -0.068585 0.000000
vn -0.082939 -0.055866 0.000000
vn -0.082939 -0.055866 0.000000
vn -0.090906 -0.041666 0.000000
vn -0.090906 -0.041666 0.000000
vn -0.096463 -0.026361 0.000000
vn -0.096463 -0.026361 0.000000
vn -0.099462 -0.010357 0.000000
vn -0.099462 -0.010357 0.000000
vn -0.099825 0.005921 0.000000
vn -0.099825 0.005921 0.000000
vn -0.097540 0.022042 0.000000
vn -0.097540 0.022042 0.000000
vn -0.092670 0.037579 0.000000
vn -0.092670 0.037579 0.000000
vn -0.085344 0.052120 0.000000
vn -0.085344 0.052120 0.000000
vn -0.075754 0.065279 0.000000
vn -0.075754 0.065279 0.000000
vn -0.064156 0.076707 0.000000
vn -0.064156 0.076707 0.000000
vn -0.050858 0.086102 0.000000
vn -0.050858 0.086102 0.000000
vn 0.058227 0.081300 0.000000
vn 0.046499 0.088532 0.000000
vn 0.058227 0.081300 0.000000
vn 0.046499 0.088532 0.000000
vn 0.034045 0.094026 0.000000
vn 0.034045 0.094026 0.000000
vn 0.058227 0.081300 0.000000
vn 0.046499 0.088532 0.000000
vn 0.058227 0.081300 0.000000
vn 0.046499 0.088532 0.000000
vn 0.034045 0.094026 0.000000
vn 0.034045 0.094026 0.000000
vn 0.058227 0.081300 0.000000
vn 0.046499 0.088532 0.000000
vn 0.058227 0.081300 0.000000
vn 0.046499 0.088532 0.000000
vn 0.034045 0.094026 0.000000
vn 0.034045 0.094026 0.000000
vn 0.058227 0.081300 0.000000
vn 0.046499 0.088532 0.000000
vn 0.058227 0.081300 0.000000
vn 0.046499 0.088532 0.000000
vn 0.034045 0.094026 0.000000
vn 0.034045 0.094026 0.000000
vn 0.000000 0.000000 0.100000
vn 0.000000 0.000000 0.100000
vn 0.000000 0.000000 0.100000
vn 0.000000 0.000000 0.100000
vn 0.000000 0.000000 0.100000
vn 0.000000 0.000000 0.100000
vn 0.000000 0.000000 0.100000
vn 0.000000 0.000000 0.100000
vn 0.000000 0.000000 0.100000
vn 0.000000 0.000000 0.100000
vn 0.000000 0.000000 0.100000
vn 0.000000 0.000000 0.100000
vn 0.000000 0.000000 0.100000
vn 0.000000 0.000000 0.100000
vn 0.000000 0.000000 0.100000
vn 0.000000 0.000000 0.100000
vn 0.000000 0.000000 0.100000
vn 0.000000 0.000000 0.100000
vn 0.000000 0.000000 0.100000
vn 0.000000 0.000000 0.100000
vn 0.000000 0.000000 0.100000
vn 0.000000 0.000000 0.100000
vn 0.000000 0.000000 0.100000
vn 0.000000 0.000000 0.100000
vn 0.000000 0.000000 0.100000
vn 0.000000 0.000000 0.100000
vn 0.000000 0.000000 0.100000
vn 0.000000 0.000000 0.100000
vn 0.000000 0.000000 0.100000
vn 0.000000 0.000000 0.100000
vn 0.000000 0.000000 0.100000
vn 0.000000 0.000000 0.100000
vn 0.000000 0.000000 0.100000
vn 0.000000 0.000000 0.100000
vn 0.000000 0.000000 0.100000
vn 0.000000 0.000000 0.100000
vn 0.000000 0.000000 0.100000
vn 0.000000 0.000000 0.100000
vn 0.000000 0.000000 0.100000
vn 0.000000 0.000000 0.100000
vn 0.000000 0.000000 0.100000
vn 0.000000 0.000000 0.100000
vn 0.000000 0.000000 0.100000
vn 0.000000 0.000000 0.100000
vn 0.000000 0.000000 0.100000
vn 0.000000 0.000000 0.100000
vn 0.000000 0.000000 0.100000
vn 0.000000 0.000000 0.100000
vn 0.000000 0.000000 0.100000
vn 0.000000 0.000000 0.100000
vn 0.000000 0.000000 0.100000
vn 0.000000 0.000000 0.100000
vn 0.000000 0.000000 0.100000
vn 0.000000 0.000000 0.100000
vn 0.000000 0.000000 0.100000
vn 0.000000 0.000000 0.100000
vn 0.000000 0.000000 0.100000
vn 0.000000 0.000000 0.100000
vn 0.000000 0.000000 0.100000
vn 0.000000 0.000000 0.100000
vn 0.000000 0.000000 0.100000
vn 0.000000 0.000000 0.100000
vn 0.000000 0.000000 0.100000
vn 0.000000 0.000000 0.100000
vn 0.000000 0.000000 0.100000
vn 0.000000 0.000000 0.100000
vn 0.000000 0.000000 0.100000
vn 0.000000 0.000000 0.100000
vn 0.000000 0.000000 0.100000
vn 0.000000 0.000000 0.100000
vn 0.000000 0.000000 0.100000
vn 0.000000 0.000000 0.100000
vn 0.000000 0.000000 0.100000
vn 0.000000 0.000000 0.100000
vn 0.000000 0.000000 0.100000
vn 0.000000 0.000000 0.100000
vn 0.000000 0.000000 0.100000
vn 0.000000 0.000000 0.100000
vn 0.000000 0.000000 0.100000
vn 0.000000 0.000000 0.100000
vn 0.000000 0.000000 0.100000
vn 0.000000 0.000000 0.100000
vn 0.000000 0.000000 0.100000
vn 0.000000 0.000000 0.100000
vn 0.000000 0.000000 0.100000
vn 0.000000 0.000000 0.100000
vn 0.000000 0.000000 0.100000
vn 0.000000 0.000000 0.100000
vn 0.000000 0.000000 0.100000
vn 0.000000 0.000000 0.100000
vn 0.000000 0.000000 0.100000
vn 0.000000 0.000000 0.100000
vn 0.000000 0.000000 0.100000
vn 0.000000 0.000000 0.100000
vn 0.000000 0.000000 0.100000
vn 0.000000 0.000000 0.100000
vn 0.000000 0.000000 0.100000
vn 0.000000 0.000000 0.100000
vn 0.000000 0.000000 0.100000
vn 0.000000 0.000000 0.100000
vn 0.000000 0.000000 0.100000
vn 0.000000 0.000000 0.100000
vn 0.000000 0.000000 0.100000
vn 0.000000 0.000000 0.100000
vn 0.000000 0.000000 0.100000
vn 0.000000 0.000000 0.100000
vn 0.000000 0.000000 0.100000
vn 0.000000 0.000000 0.100000
vn 0.000000 0.000000 0.100000
vn 0.000000 0.000000 0.100000
vn 0.000000 0.000000 0.100000
vn 0.000000 0.000000 0.100000
vn 0.000000 0.000000 0.100000
vn 0.000000 0.000000 0.100000
vn 0.000000 0.000000 0.100000
vn 0.000000 0.000000 0.100000
vn 0.000000 0.000000 0.100000
vn 0.000000 0.000000 0.100000
vn 0.000000 0.000000 0.100000
vn 0.000000 0.000000 0.100000
vn 0.000000 0.000000 0.100000
vn 0.000000 0.000000 0.100000
vn 0.000000 0.000000 0.100000
vn 0.000000 0.000000 0.100000
vn 0.000000 0.000000 0.100000
vn 0.000000 0.000000 0.100000
vn 0.000000 0.000000 0.100000
vn 0.000000 0.000000 0.100000
vn 0.000000 0.000000 0.100000
vn 0.000000 0.000000 0.100000
vn 0.000000 0.000000 0.100000
vn 0.000000 0.000000 0.100000
vn 0.000000 0.000000 0.100000
vn 0.000000 0.000000 0.100000
vn 0.000000 0.000000 0.100000
vn 0.000000 0.000000 0.100000
vn 0.000000 0.000000 0.100000
vn 0.000000 0.000000 0.100000
vn 0.000000 0.000000 0.100000
vn 0.000000 0.000000 0.100000
vn 0.000000 0.000000 0.100000
vn 0.000000 0.000000 0.100000
vn 0.000000 0.000000 0.100000
vn 0.000000 0.000000 0.100000
vn 0.000000 0.000000 0.100000
vn 0.000000 0.000000 0.100000
vn 0.000000 0.000000 0.100000
vn 0.000000 0.000000 0.100000
vn 0.000000 0.000000 0.100000
vn 0.000000 0.000000 0.100000
vn 0.000000 0.000000 0.100000
vn 0.000000 0.000000 0.100000
vn 0.000000 0.000000 0.100000
vn 0.000000 0.000000 0.100000
vn 0.000000 0.000000 0.100000
vn 0.000000 0.000000 0.100000
vn 0.000000 0.000000 0.100000
vn 0.000000 0.000000 0.100000
vn 0.000000 0.000000 0.100000
vn 0.000000 0.000000 0.100000
vn 0.000000 0.000000 0.100000
vn 0.000000 0.000000 0.100000
vn 0.000000 0.000000 0.100000
vn 0.000000 0.000000 0.100000
vn 0.000000 0.000000 0.100000
vn 0.000000 0.000000 0.100000
vn 0.000000 0.000000 0.100000
vn 0.000000 0.000000 0.100000
vn 0.000000 0.000000 0.100000
vn 0.000000 0.000000 0.100000
vn 0.000000 0.000000 0.100000
vn 0.000000 0.000000 0.100000
vn 0.000000 0.000000 0.100000
vn 0.000000 0.000000 0.100000
vn 0.000000 0.000000 0.100000
vn 0.000000 0.000000 0.100000
vn 0.000000 0.000000 0.100000
vn 0.000000 0.000000 0.100000
vn 0.000000 0.000000 0.100000
vn 0.000000 0.000000 0.100000
vn 0.000000 0.000000 0.100000
vn 0.000000 0.000000 0.100000
vn 0.000000 0.000000 0.100000
vn 0.000000 0.000000 0.100000
vn 0.000000 0.000000 0.100000
vn 0.000000 0.000000 0.100000
vn 0.000000 0.000000 0.100000
vn 0.000000 0.000000 0.100000
vn 0.000000 0.000000 0.100000
vn 0.000000 0.000000 0.100000
vn 0.000000 0.000000 0.100000
vn 0.000000 0.000000 0.100000
vn 0.000000 0.000000 0.100000
vn 0.000000 0.000000 0.100000
vn 0.000000 0.000000 0.100000
vn 0.000000 0.000000 0.100000
vn 0.000000 0.000000 0.100000
vn 0.000000 0.000000 0.100000
vn 0.000000 0.000000 0.100000
vn 0.000000 0.000000 0.100000
vn 0.000000 0.000000 0.100000
vn 0.000000 0.000000 0.100000
vn 0.000000 0.000000 0.100000
vn 0.025849 0.096601 0.000000
vn 0.025849 0.096601 0.000000
vn 0.013036 0.099147 0.000000
vn 0.013036 0.099147 0.000000
vn -0.000000 0.100000 0.000000
vn -0.000000 0.100000 0.000000
vn -0.013036 0.099147 0.000000
vn -0.013036 0.099147 0.000000
vn -0.025849 0.096601 0.000000
vn -0.025849 0.096601 0.000000
vn -0.058228 0.081299 0.000000
vn -0.046513 0.088524 0.000000
vn -0.058228 0.081299 0.000000
vn -0.046513 0.088524 0.000000
vn -0.034045 0.094026 0.000000
vn -0.034045 0.094026 0.000000
vn 0.025849 0.096601 0.000000
vn 0.025849 0.096601 0.000000
vn 0.013036 0.099147 0.000000
vn 0.013036 0.099147 0.000000
vn -0.000000 0.100000 0.000000
vn -0.000000 0.100000 0.000000
vn -0.013036 0.099147 0.000000
vn -0.013036 0.099147 0.000000
vn -0.025849 0.096601 0.000000
vn -0.025849 0.096601 0.000000
vn -0.058228 0.081299 0.000000
vn -0.046513 0.088524 0.000000
vn -0.058228 0.081299 0.000000
vn -0.046513 0.088524 0.000000
vn -0.034045 0.094026 0.000000
vn -0.034045 0.094026 0.000000
vn 0.025849 0.096601 0.000000
vn 0.025849 0.096601 0.000000
vn 0.013036 0.099147 0.000000
vn 0.013036 0.099147 0.000000
vn -0.000000 0.100000 0.000000
vn -0.000000 0.100000 0.000000
vn -0.013036 0.099147 0.000000
vn -0.013036 0.099147 0.000000
vn -0.025849 0.096601 0.000000
vn -0.025849 0.096601 0.000000
vn -0.058228 0.081299 0.000000
vn -0.046513 0.088524 0.000000
vn -0.058228 0.081299 0.000000
vn -0.046513 0.088524 0.000000
vn -0.034045 0.094026 0.000000
vn -0.034045 0.094026 0.000000
vn 0.025849 0.096601 0.000000
vn 0.025849 0.096601 0.000000
vn 0.013036 0.099147 0.000000
vn 0.013036 0.099147 0.000000
vn -0.000000 0.100000 0.000000
vn -0.000000 0.100000 0.000000
vn -0.013036 0.099147 0.000000
vn -0.013036 0.099147 0.000000
vn -0.025849 0.096601 0.000000
vn -0.025849 0.096601 0.000000
vn -0.058228 0.081299 0.000000
vn -0.046513 0.088524 0.000000
vn -0.058228 0.081299 0.000000
vn -0.046513 0.088524 0.000000
vn -0.034045 0.094026 0.000000
vn -0.034045 0.094026 0.000000
vn 0.000000 -0.100000 0.000000
vn 0.000000 -0.100000 0.000000
vn 0.000000 -0.100000 0.000000
vn 0.000000 -0.100000 0.000000
vn 0.100000 -0.000000 0.000000
vn 0.100000 -0.000000 0.000000
vn 0.100000 -0.000000 0.000000
vn 0.100000 -0.000000 0.000000
vn 0.000000 0.100000 0.000000
vn 0.000000 0.100000 0.000000
vn 0.000000 0.100000 0.000000
vn 0.000000 0.100000 0.000000
vn 0.099146 0.013043 0.000000
vn 0.099146 0.013043 0.000000
vn 0.097873 0.020513 0.000000
vn 0.097873 0.020513 0.000000
vn 0.096039 0.027865 0.000000
vn 0.096039 0.027865 0.000000
vn 0.093654 0.035056 0.000000
vn 0.093654 0.035056 0.000000
vn 0.090731 0.042047 0.000000
vn 0.090731 0.042047 0.000000
vn 0.087287 0.048796 0.000000
vn 0.087287 0.048796 0.000000
vn 0.083341 0.055265 0.000000
vn 0.083341 0.055265 0.000000
vn 0.078918 0.061417 0.000000
vn 0.078918 0.061417 0.000000
vn 0.074041 0.067216 0.000000
vn 0.074041 0.067216 0.000000
vn 0.068739 0.072629 0.000000
vn 0.068739 0.072629 0.000000
vn 0.063042 0.077625 0.000000
vn 0.063042 0.077625 0.000000
vn 0.056984 0.082176 0.000000
vn 0.056984 0.082176 0.000000
vn 0.050598 0.086254 0.000000
vn 0.050598 0.086254 0.000000
vn 0.043922 0.089838 0.000000
vn 0.043922 0.089838 0.000000
vn 0.036994 0.092906 0.000000
vn 0.036994 0.092906 0.000000
vn 0.029853 0.095440 0.000000
vn 0.029853 0.095440 0.000000
vn 0.022541 0.097426 0.000000
vn 0.022541 0.097426 0.000000
vn 0.015100 0.098853 0.000000
vn 0.015100 0.098853 0.000000
vn 0.007572 0.099713 0.000000
vn 0.007572 0.099713 0.000000
vn 0.000000 0.100000 0.000000
vn 0.000000 0.100000 0.000000
vn -0.007572 0.099713 0.000000
vn -0.007572 0.099713 0.000000
vn -0.015100 0.098853 0.000000
vn -0.015100 0.098853 0.000000
vn -0.022541 0.097426 0.000000
vn -0.022541 0.097426 0.000000
vn -0.029853 0.095440 0.000000
vn -0.029853 0.095440 0.000000
vn -0.036994 0.092906 0.000000
vn -0.036994 0.092906 0.000000
vn -0.043922 0.089838 0.000000
vn -0.043922 0.089838 0.000000
vn -0.050598 0.086254 0.000000
vn -0.050598 0.086254 0.000000
vn -0.056984 0.082176 0.000000
vn -0.056984 0.082176 0.000000
vn -0.063042 0.077625 0.000000
vn -0.063042 0.077625 0.000000
vn -0.068739 0.072629 0.000000
vn -0.068739 0.072629 0.000000
vn -0.074041 0.067216 0.000000
vn -0.074041 0.067216 0.000000
vn -0.078918 0.061417 0.000000
vn -0.078918 0.061417 0.000000
vn -0.083341 0.055265 0.000000
vn -0.083341 0.055265 0.000000
vn -0.087287 0.048796 0.000000
vn -0.087287 0.048796 0.000000
vn -0.090731 0.042047 0.000000
vn -0.090731 0.042047 0.000000
vn -0.093654 0.035056 0.000000
vn -0.093654 0.035056 0.000000
vn -0.096039 0.027865 0.000000
vn -0.096039 0.027865 0.000000
vn -0.097873 0.020513 0.000000
vn -0.097873 0.020513 0.000000
vn -0.099146 0.013043 0.000000
vn -0.099146 0.013043 0.000000
vn 0.000000 0.100000 0.000000
vn 0.000000 0.100000 0.000000
vn 0.000000 0.100000 0.000000
vn 0.000000 0.100000 0.000000
vn -0.100000 0.000000 0.000000
vn -0.100000 0.000000 0.000000
vn -0.100000 0.000000 0.000000
vn -0.100000 0.000000 0.000000
vn 0.000000 0.000000 -0.100000
vn 0.000000 0.000000 -0.100000
vn 0.000000 0.000000 -0.100000
vn 0.000000 0.000000 -0.100000
vn 0.000000 0.000000 -0.100000
vn 0.000000 0.000000 -0.100000
vn 0.000000 0.000000 -0.100000
vn 0.000000 0.000000 -0.100000
vn 0.000000 0.000000 -0.100000
vn 0.000000 0.000000 -0.100000
vn 0.000000 0.000000 -0.100000
vn 0.000000 0.000000 -0.100000
vn 0.000000 0.000000 -0.100000
vn 0.000000 0.000000 -0.100000
vn 0.000000 0.000000 -0.100000
vn 0.000000 0.000000 -0.100000
vn 0.000000 0.000000 -0.100000
vn 0.000000 0.000000 -0.100000
vn 0.000000 0.000000 -0.100000
vn 0.000000 0.000000 -0.100000
vn 0.000000 0.000000 -0.100000
vn 0.000000 0.000000 -0.100000
vn 0.000000 0.000000 -0.100000
vn 0.000000 0.000000 -0.100000
vn 0.000000 0.000000 -0.100000
vn 0.000000 0.000000 -0.100000
vn 0.000000 0.000000 -0.100000
vn 0.000000 0.000000 -0.100000
vn 0.000000 0.000000 -0.100000
vn 0.000000 0.000000 -0.100000
vn 0.000000 0.000000 -0.100000
vn 0.000000 0.000000 -0.100000
vn 0.000000 0.000000 -0.100000
vn 0.000000 0.000000 -0.100000
vn 0.000000 0.000000 -0.100000
vn 0.000000 0.000000 -0.100000
vn 0.000000 0.000000 -0.100000
vn 0.000000 0.000000 -0.100000
vn 0.000000 0.000000 -0.100000
vn 0.000000 0.000000 -0.100000
vn 0.000000 0.000000 -0.100000
vn 0.000000 0.000000 -0.100000
vn 0.000000 0.000000 -0.100000
vn 0.000000 0.000000 -0.100000
vn 0.000000 0.000000 -0.100000
vn 0.000000 0.000000 -0.100000
vn 0.000000 0.000000 -0.100000
vn 0.000000 0.000000 -0.100000
vn 0.000000 0.000000 -0.100000
vn 0.000000 0.000000 -0.100000
vn 0.000000 0.000000 -0.100000
vn 0.000000 0.000000 -0.100000
vn 0.000000 0.000000 -0.100000
vn 0.000000 0.000000 -0.100000
vn 0.000000 0.000000 -0.100000
vn 0.000000 0.000000 -0.100000
vn 0.000000 0.000000 -0.100000
vn 0.000000 0.000000 -0.100000
vn 0.000000 0.000000 -0.100000
vn 0.000000 0.000000 -0.100000
vn 0.000000 0.000000 -0.100000
vn 0.000000 0.000000 -0.100000
vn 0.000000 0.000000 -0.100000
vn 0.000000 0.000000 -0.100000
vn 0.000000 0.000000 -0.100000
vn 0.000000 0.000000 -0.100000
vn 0.000000 0.000000 -0.100000
vn 0.000000 0.000000 -0.100000
vn 0.000000 0.000000 -0.100000
vn 0.000000 0.000000 -0.100000
vn 0.000000 0.000000 -0.100000
vn 0.000000 0.000000 -0.100000
vn 0.000000 0.000000 -0.100000
vn 0.000000 0.000000 -0.100000
vn 0.000000 0.000000 -0.100000
vn 0.000000 0.000000 -0.100000
vn 0.000000 0.000000 -0.100000
vn 0.000000 0.000000 -0.100000
vn 0.000000 0.000000 -0.100000
vn 0.000000 0.000000 -0.100000
vn 0.000000 0.000000 -0.100000
vn 0.000000 0.000000 -0.100000
vn 0.000000 0.000000 -0.100000
vn 0.000000 0.000000 -0.100000
vn 0.000000 0.000000 -0.100000
vn 0.000000 0.000000 -0.100000
vn 0.000000 0.000000 -0.100000
vn 0.000000 0.000000 -0.100000
vn 0.000000 0.000000 -0.100000
vn 0.000000 0.000000 -0.100000
vn 0.000000 0.000000 -0.100000
vn 0.000000 0.000000 -0.100000
vn 0.000000 0.000000 -0.100000
vn 0.000000 0.000000 -0.100000
vn 0.000000 0.000000 -0.100000
vn 0.000000 0.000000 -0.100000
vn 0.000000 0.000000 -0.100000
vn 0.000000 0.000000 -0.100000
vn 0.000000 0.000000 -0.100000
vn 0.000000 0.000000 -0.100000
vn 0.000000 0.000000 -0.100000
vn 0.000000 0.000000 -0.100000
vn 0.000000 0.000000 -0.100000
vn 0.000000 0.000000 -0.100000
vn 0.000000 0.000000 -0.100000
vn 0.000000 0.000000 -0.100000
vn 0.000000 0.000000 -0.100000
vn 0.000000 0.000000 -0.100000
vn 0.000000 0.000000 -0.100000
vn 0.000000 0.000000 -0.100000
vn 0.000000 0.000000 -0.100000
vn 0.000000 0.000000 -0.100000
vn 0.000000 0.000000 -0.100000
vn 0.000000 0.000000 -0.100000
vn 0.000000 0.000000 -0.100000
vn 0.000000 0.000000 -0.100000
vn 0.000000 0.000000 -0.100000
vn 0.000000 0.000000 -0.100000
vn 0.000000 0.000000 -0.100000
vn 0.000000 0.000000 -0.100000
vn 0.000000 0.000000 -0.100000
vn 0.000000 0.000000 -0.100000
vn 0.000000 0.000000 -0.100000
vn 0.000000 0.000000 -0.100000
vn 0.000000 0.000000 -0.100000
vn 0.000000 0.000000 -0.100000
vn 0.000000 0.000000 -0.100000
vn 0.000000 0.000000 -0.100000
vn 0.000000 0.000000 -0.100000
vn 0.000000 0.000000 -0.100000
vn 0.000000 0.000000 -0.100000
vn 0.000000 0.000000 -0.100000
vn 0.000000 0.000000 -0.100000
vn 0.000000 0.000000 -0.100000
vn 0.000000 0.000000 -0.100000
vn 0.000000 0.000000 -0.100000
vn 0.000000 0.000000 -0.100000
vn 0.000000 0.000000 -0.100000
vn 0.000000 0.000000 -0.100000
vn 0.000000 0.000000 -0.100000
vn 0.000000 0.000000 -0.100000
vn 0.000000 0.000000 -0.100000
vn 0.000000 0.000000 -0.100000
vn 0.000000 0.000000 -0.100000
vn 0.000000 0.000000 -0.100000
vn 0.000000 0.000000 -0.100000
vn 0.000000 0.000000 -0.100000
vn 0.000000 0.000000 -0.100000
vn 0.000000 0.000000 -0.100000
vn 0.000000 0.000000 -0.100000
vn 0.000000 0.000000 -0.100000
vn 0.000000 0.000000 -0.100000
vn 0.000000 0.000000 -0.100000
vn 0.000000 0.000000 -0.100000
vn 0.000000 0.000000 -0.100000
vn 0.000000 0.000000 -0.100000
vn 0.000000 0.000000 -0.100000
vn 0.000000 0.000000 -0.100000
vn 0.000000 0.000000 -0.100000
vn 0.000000 0.000000 -0.100000
vn 0.000000 0.000000 -0.100000
vn 0.000000 0.000000 -0.100000
vn 0.000000 0.000000 -0.100000
vn 0.000000 0.000000 -0.100000
vn 0.000000 0.000000 -0.100000
vn 0.000000 0.000000 -0.100000
vn 0.000000 0.000000 -0.100000
vn 0.000000 0.000000 -0.100000
vn 0.000000 0.000000 -0.100000
vn 0.000000 0.000000 -0.100000
vn 0.000000 0.000000 -0.100000
vn 0.000000 0.000000 -0.100000
vn 0.000000 0.000000 -0.100000
vn 0.000000 0.000000 -0.100000
vn 0.000000 0.000000 -0.100000
vn 0.000000 0.000000 -0.100000
vn 0.000000 0.000000 -0.100000
vn 0.000000 0.000000 -0.100000
vn 0.000000 0.000000 -0.100000
vn 0.000000 0.000000 -0.100000
vn 0.000000 0.000000 -0.100000
vn 0.000000 0.000000 -0.100000
vn 0.000000 0.000000 -0.100000
vn 0.000000 0.000000 -0.100000
vn 0.000000 0.000000 -0.100000
vn 0.000000 0.000000 -0.100000
vn 0.000000 0.000000 -0.100000
vn 0.000000 0.000000 -0.100000
vn 0.000000 0.000000 -0.100000
vn 0.000000 0.000000 -0.100000
vn 0.000000 0.000000 -0.100000
vn 0.000000 0.000000 -0.100000
vn 0.000000 0.000000 -0.100000
vn 0.000000 0.000000 -0.100000
vn 0.000000 0.000000 -0.100000
vn 0.000000 0.000000 -0.100000
vn 0.000000 0.000000 -0.100000
vn 0.000000 0.000000 -0.100000
vn 0.000000 0.000000 -0.100000
vn 0.000000 0.000000 -0.100000
vn 0.000000 0.000000 -0.100000
vn 0.000000 0.000000 -0.100000
vn 0.000000 0.000000 -0.100000
usemtl Acrylic_(Clear)
f 1/1/1 2/2/2 66/3/3
f 66/3/3 2/2/2 3/4/4
f 66/3/3 3/4/4 65/5/5
f 65/5/5 3/4/4 4/6/6
f 65/5/5 4/6/6 64/7/7
f 64/7/7 4/6/6 5/8/8
f 64/7/7 5/8/8 63/9/9
f 63/9/9 5/8/8 6/10/10
f 63/9/9 6/10/10 62/11/11
f 62/11/11 6/10/10 7/12/12
f 62/11/11 7/12/12 61/13/13
f 61/13/13 7/12/12 8/14/14
f 61/13/13 8/14/14 60/15/15
f 60/15/15 8/14/14 9/16/16
f 60/15/15 9/16/16 59/17/17
f 59/17/17 9/16/16 10/18/18
f 59/17/17 10/18/18 58/19/19
f 58/19/19 10/18/18 11/20/20
f 58/19/19 11/20/20 57/21/21
f 57/21/21 11/20/20 12/22/22
f 57/21/21 12/22/22 56/23/23
f 56/23/23 12/22/22 13/24/24
f 56/23/23 13/24/24 55/25/25
f 55/25/25 13/24/24 14/26/26
f 55/25/25 14/26/26 54/27/27
f 54/27/27 14/26/26 15/28/28
f 54/27/27 15/28/28 53/29/29
f 53/29/29 15/28/28 16/30/30
f 53/29/29 16/30/30 52/31/31
f 52/31/31 16/30/30 17/32/32
f 52/31/31 17/32/32 51/33/33
f 51/33/33 17/32/32 18/34/34
f 51/33/33 18/34/34 50/35/35
f 50/35/35 18/34/34 19/36/36
f 50/35/35 19/36/36 49/37/37
f 49/37/37 19/36/36 20/38/38
f 49/37/37 20/38/38 48/39/39
f 48/39/39 20/38/38 21/40/40
f 48/39/39 21/40/40 47/41/41
f 47/41/41 21/40/40 22/42/42
f 47/41/41 22/42/42 46/43/43
f 46/43/43 22/42/42 23/44/44
f 46/43/43 23/44/44 45/45/45
f 45/45/45 23/44/44 24/46/46
f 45/45/45 24/46/46 44/47/47
f 44/47/47 24/46/46 25/48/48
f 44/47/47 25/48/48 43/49/49
f 43/49/49 25/48/48 26/50/50
f 43/49/49 26/50/50 42/51/51
f 42/51/51 26/50/50 27/52/52
f 42/51/51 27/52/52 41/53/53
f 41/53/53 27/52/52 28/54/54
f 41/53/53 28/54/54 40/55/55
f 40/55/55 28/54/54 29/56/56
f 40/55/55 29/56/56 39/57/57
f 39/57/57 29/56/56 30/58/58
f 39/57/57 30/58/58 38/59/59
f 38/59/59 30/58/58 31/60/60
f 38/59/59 31/60/60 37/61/61
f 37/61/61 31/60/60 32/62/62
f 37/61/61 32/62/62 36/63/63
f 36/63/63 32/62/62 33/64/64
f 36/63/63 33/64/64 35/65/65
f 35/65/65 33/64/64 34/66/66
f 67/67/67 68/68/68 132/69/69
f 132/69/69 68/68/68 69/70/70
f 132/69/69 69/70/70 131/71/71
f 131/71/71 69/70/70 70/72/72
f 131/71/71 70/72/72 130/73/73
f 130/73/73 70/72/72 71/74/74
f 130/73/73 71/74/74 129/75/75
f 129/75/75 71/74/74 72/76/76
f 129/75/75 72/76/76 128/77/77
f 128/77/77 72/76/76 73/78/78
f 128/77/77 73/78/78 127/79/79
f 127/79/79 73/78/78 74/80/80
f 127/79/79 74/80/80 126/81/81
f 126/81/81 74/80/80 75/82/82
f 126/81/81 75/82/82 125/83/83
f 125/83/83 75/82/82 76/84/84
f 125/83/83 76/84/84 124/85/85
f 124/85/85 76/84/84 77/86/86
f 124/85/85 77/86/86 123/87/87
f 123/87/87 77/86/86 78/88/88
f 123/87/87 78/88/88 122/89/89
f 122/89/89 78/88/88 79/90/90
f 122/89/89 79/90/90 121/91/91
f 121/91/91 79/90/90 80/92/92
f 121/91/91 80/92/92 120/93/93
f 120/93/93 80/92/92 81/94/94
f 120/93/93 81/94/94 119/95/95
f 119/95/95 81/94/94 82/96/96
f 119/95/95 82/96/96 118/97/97
f 118/97/97 82/96/96 83/98/98
f 118/97/97 83/98/98 117/99/99
f 117/99/99 83/98/98 84/100/100
f 117/99/99 84/100/100 116/101/101
f 116/101/101 84/100/100 85/102/102
f 116/101/101 85/102/102 115/103/103
f 115/103/103 85/102/102 86/104/104
f 115/103/103 86/104/104 114/105/105
f 114/105/105 86/104/104 87/106/106
f 114/105/105 87/106/106 113/107/107
f 113/107/107 87/106/106 88/108/108
f 113/107/107 88/108/108 112/109/109
f 112/109/109 88/108/108 89/110/110
f 112/109/109 89/110/110 111/111/111
f 111/111/111 89/110/110 90/112/112
f 111/111/111 90/112/112 110/113/113
f 110/113/113 90/112/112 91/114/114
f 110/113/113 91/114/114 109/115/115
f 109/115/115 91/114/114 92/116/116
f 109/115/115 92/116/116 108/117/117
f 108/117/117 92/116/116 93/118/118
f 108/117/117 93/118/118 107/119/119
f 107/119/119 93/118/118 94/120/120
f 107/119/119 94/120/120 106/121/121
f 106/121/121 94/120/120 95/122/122
f 106/121/121 95/122/122 105/123/123
f 105/123/123 95/122/122 96/124/124
f 105/123/123 96/124/124 104/125/125
f 104/125/125 96/124/124 97/126/126
f 104/125/125 97/126/126 103/127/127
f 103/127/127 97/126/126 98/128/128
f 103/127/127 98/128/128 102/129/129
f 102/129/129 98/128/128 99/130/130
f 102/129/129 99/130/130 101/131/131
f 101/131/131 99/130/130 100/132/132
f 133/133/133 134/134/134 198/135/135
f 198/135/135 134/134/134 135/136/136
f 198/135/135 135/136/136 197/137/137
f 197/137/137 135/136/136 136/138/138
f 197/137/137 136/138/138 196/139/139
f 196/139/139 136/138/138 137/140/140
f 196/139/139 137/140/140 195/141/141
f 195/141/141 137/140/140 138/142/142
f 195/141/141 138/142/142 194/143/143
f 194/143/143 138/142/142 139/144/144
f 194/143/143 139/144/144 193/145/145
f 193/145/145 139/144/144 140/146/146
f 193/145/145 140/146/146 192/147/147
f 192/147/147 140/146/146 141/148/148
f 192/147/147 141/148/148 191/149/149
f 191/149/149 141/148/148 142/150/150
f 191/149/149 142/150/150 190/151/151
f 190/151/151 142/150/150 143/152/152
f 190/151/151 143/152/152 189/153/153
f 189/153/153 143/152/152 144/154/154
f 189/153/153 144/154/154 188/155/155
f 188/155/155 144/154/154 145/156/156
f 188/155/155 145/156/156 187/157/157
f 187/157/157 145/156/156 146/158/158
f 187/157/157 146/158/158 186/159/159
f 186/159/159 146/158/158 147/160/160
f 186/159/159 147/160/160 185/161/161
f 185/161/161 147/160/160 148/162/162
f 185/161/161 148/162/162 184/163/163
f 184/163/163 148/162/162 149/164/164
f 184/163/163 149/164/164 183/165/165
f 183/165/165 149/164/164 150/166/166
f 183/165/165 150/166/166 182/167/167
f 182/167/167 150/166/166 151/168/168
f 182/167/167 151/168/168 181/169/169
f 181/169/169 151/168/168 152/170/170
f 181/169/169 152/170/170 180/171/171
f 180/171/171 152/170/170 153/172/172
f 180/171/171 153/172/172 179/173/173
f 179/173/173 153/172/172 154/174/174
f 179/173/173 154/174/174 178/175/175
f 178/175/175 154/174/174 155/176/176
f 178/175/175 155/176/176 177/177/177
f 177/177/177 155/176/176 156/178/178
f 177/177/177 156/178/178 176/179/179
f 176/179/179 156/178/178 157/180/180
f 176/179/179 157/180/180 175/181/181
f 175/181/181 157/180/180 158/182/182
f 175/181/181 158/182/182 174/183/183
f 174/183/183 158/182/182 159/184/184
f 174/183/183 159/184/184 173/185/185
f 173/185/185 159/184/184 160/186/186
f 173/185/185 160/186/186 172/187/187
f 172/187/187 160/186/186 161/188/188
f 172/187/187 161/188/188 171/189/189
f 171/189/189 161/188/188 162/190/190
f 171/189/189 162/190/190 170/191/191
f 170/191/191 162/190/190 163/192/192
f 170/191/191 163/192/192 169/193/193
f 169/193/193 163/192/192 164/194/194
f 169/193/193 164/194/194 168/195/195
f 168/195/195 164/194/194 165/196/196
f 168/195/195 165/196/196 167/197/197
f 167/197/197 165/196/196 166/198/198
f 199/199/199 200/200/200 264/201/201
f 264/201/201 200/200/200 201/202/202
f 264/201/201 201/202/202 263/203/203
f 263/203/203 201/202/202 202/204/204
f 263/203/203 202/204/204 262/205/205
f 262/205/205 202/204/204 203/206/206
f 262/205/205 203/206/206 261/207/207
f 261/207/207 203/206/206 204/208/208
f 261/207/207 204/208/208 260/209/209
f 260/209/209 204/208/208 205/210/210
f 260/209/209 205/210/210 259/211/211
f 259/211/211 205/210/210 206/212/212
f 259/211/211 206/212/212 258/213/213
f 258/213/213 206/212/212 207/214/214
f 258/213/213 207/214/214 257/215/215
f 257/215/215 207/214/214 208/216/216
f 257/215/215 208/216/216 256/217/217
f 256/217/217 208/216/216 209/218/218
f 256/217/217 209/218/218 255/219/219
f 255/219/219 209/218/218 210/220/220
f 255/219/219 210/220/220 254/221/221
f 254/221/221 210/220/220 211/222/222
f 254/221/221 211/222/222 253/223/223
f 253/223/223 211/222/222 212/224/224
f 253/223/223 212/224/224 252/225/225
f 252/225/225 212/224/224 213/226/226
f 252/225/225 213/226/226 251/227/227
f 251/227/227 213/226/226 214/228/228
f 251/227/227 214/228/228 250/229/229
f 250/229/229 214/228/228 215/230/230
f 250/229/229 215/230/230 249/231/231
f 249/231/231 215/230/230 216/232/232
f 249/231/231 216/232/232 248/233/233
f 248/233/233 216/232/232 217/234/234
f 248/233/233 217/234/234 247/235/235
f 247/235/235 217/234/234 218/236/236
f 247/235/235 218/236/236 246/237/237
f 246/237/237 218/236/236 219/238/238
f 246/237/237 219/238/238 245/239/239
f 245/239/239 219/238/238 220/240/240
f 245/239/239 220/240/240 244/241/241
f 244/241/241 220/240/240 221/242/242
f 244/241/241 221/242/242 243/243/243
f 243/243/243 221/242/242 222/244/244
f 243/243/243 222/244/244 242/245/245
f 242/245/245 222/244/244 223/246/246
f 242/245/245 223/246/246 241/247/247
f 241/247/247 223/246/246 224/248/248
f 241/247/247 224/248/248 240/249/249
f 240/249/249 224/248/248 225/250/250
f 240/249/249 225/250/250 239/251/251
f 239/251/251 225/250/250 226/252/252
f 239/251/251 226/252/252 238/253/253
f 238/253/253 226/252/252 227/254/254
f 238/253/253 227/254/254 237/255/255
f 237/255/255 227/254/254 228/256/256
f 237/255/255 228/256/256 236/257/257
f 236/257/257 228/256/256 229/258/258
f 236/257/257 229/258/258 235/259/259
f 235/259/259 229/258/258 230/260/260
f 235/259/259 230/260/260 234/261/261
f 234/261/261 230/260/260 231/262/262
f 234/261/261 231/262/262 233/263/263
f 233/263/263 231/262/262 232/264/264
f 1/265/265 265/266/266 2/267/267
f 2/267/267 265/266/266 268/268/268
f 268/268/268 265/266/266 266/269/269
f 268/268/268 266/269/269 267/270/270
f 67/271/271 269/272/272 68/273/273
f 68/273/273 269/272/272 272/274/274
f 272/274/274 269/272/272 270/275/275
f 272/274/274 270/275/275 271/276/276
f 133/277/277 273/278/278 134/279/279
f 134/279/279 273/278/278 276/280/280
f 276/280/280 273/278/278 274/281/281
f 276/280/280 274/281/281 275/282/282
f 199/283/283 277/284/284 200/285/285
f 200/285/285 277/284/284 280/286/286
f 280/286/286 277/284/284 278/287/287
f 280/286/286 278/287/287 279/288/288
f 273/289/289 133/290/290 302/291/291
f 302/291/291 133/290/290 198/292/292
f 302/291/291 198/292/292 197/293/293
f 197/293/293 196/294/294 302/291/291
f 302/291/291 196/294/294 195/295/295
f 302/291/291 195/295/295 194/296/296
f 194/296/296 193/297/297 302/291/291
f 302/291/291 193/297/297 192/298/298
f 302/291/291 192/298/298 191/299/299
f 190/300/300 63/301/301 191/299/299
f 191/299/299 63/301/301 62/302/302
f 191/299/299 62/302/302 302/291/291
f 302/291/291 62/302/302 301/303/303
f 301/303/303 62/302/302 61/304/304
f 301/303/303 61/304/304 60/305/305
f 63/301/301 190/300/300 64/306/306
f 64/306/306 190/300/300 189/307/307
f 64/306/306 189/307/307 65/308/308
f 65/308/308 189/307/307 188/309/309
f 65/308/308 188/309/309 66/310/310
f 66/310/310 188/309/309 187/311/311
f 66/310/310 187/311/311 1/312/312
f 1/312/312 187/311/311 186/313/313
f 1/312/312 186/313/313 265/314/314
f 265/314/314 186/313/313 185/315/315
f 265/314/314 185/315/315 266/316/316
f 266/316/316 185/315/315 184/317/317
f 266/316/316 184/317/317 295/318/318
f 295/318/318 184/317/317 183/319/319
f 295/318/318 183/319/319 294/320/320
f 294/320/320 183/319/319 293/321/321
f 293/321/321 183/319/319 182/322/322
f 293/321/321 182/322/322 292/323/323
f 292/323/323 182/322/322 181/324/324
f 292/323/323 181/324/324 332/325/325
f 332/325/325 181/324/324 331/326/326
f 331/326/326 181/324/324 180/327/327
f 331/326/326 180/327/327 330/328/328
f 330/328/328 180/327/327 179/329/329
f 330/328/328 179/329/329 329/330/330
f 329/330/330 179/329/329 178/331/331
f 329/330/330 178/331/331 328/332/332
f 328/332/332 178/331/331 177/333/333
f 328/332/332 177/333/333 327/334/334
f 327/334/334 177/333/333 176/335/335
f 327/334/334 176/335/335 175/336/336
f 327/334/334 175/336/336 326/337/337
f 326/337/337 175/336/336 174/338/338
f 326/337/337 174/338/338 325/339/339
f 325/339/339 174/338/338 173/340/340
f 325/339/339 173/340/340 172/341/341
f 325/339/339 172/341/341 324/342/342
f 324/342/342 172/341/341 171/343/343
f 324/342/342 171/343/343 261/344/344
f 261/344/344 171/343/343 170/345/345
f 261/344/344 170/345/345 262/346/346
f 262/346/346 170/345/345 169/347/347
f 262/346/346 169/347/347 263/348/348
f 263/348/348 169/347/347 168/349/349
f 263/348/348 168/349/349 264/350/350
f 264/350/350 168/349/349 167/351/351
f 264/350/350 167/351/351 199/352/352
f 199/352/352 167/351/351 277/353/353
f 277/353/353 167/351/351 281/354/354
f 277/353/353 281/354/354 282/355/355
f 283/356/356 302/291/291 282/355/355
f 282/355/355 302/291/291 278/357/357
f 282/355/355 278/357/357 277/353/353
f 283/356/356 284/358/358 302/291/291
f 302/291/291 284/358/358 285/359/359
f 302/291/291 285/359/359 274/360/360
f 274/360/360 273/289/289 302/291/291
f 269/361/361 67/362/362 315/363/363
f 315/363/363 67/362/362 132/364/364
f 315/363/363 132/364/364 314/365/365
f 314/365/365 132/364/364 131/366/366
f 314/365/365 131/366/366 313/367/367
f 313/367/367 131/366/366 130/368/368
f 313/367/367 130/368/368 129/369/369
f 313/367/367 129/369/369 312/370/370
f 312/370/370 129/369/369 128/371/371
f 312/370/370 128/371/371 311/372/372
f 311/372/372 128/371/371 127/373/373
f 311/372/372 127/373/373 126/374/374
f 311/372/372 126/374/374 310/375/375
f 310/375/375 126/374/374 125/376/376
f 310/375/375 125/376/376 309/377/377
f 309/377/377 125/376/376 124/378/378
f 309/377/377 124/378/378 123/379/379
f 309/377/377 123/379/379 308/380/380
f 308/380/380 123/379/379 122/381/381
f 308/380/380 122/381/381 121/382/382
f 308/380/380 121/382/382 307/383/383
f 307/383/383 121/382/382 120/384/384
f 307/383/383 120/384/384 306/385/385
f 306/385/385 120/384/384 119/386/386
f 306/385/385 119/386/386 118/387/387
f 117/388/388 304/389/389 118/387/387
f 118/387/387 304/389/389 305/390/390
f 118/387/387 305/390/390 306/385/385
f 117/388/388 116/391/391 304/389/389
f 304/389/389 116/391/391 115/392/392
f 304/389/389 115/392/392 114/393/393
f 114/393/393 113/394/394 304/389/389
f 304/389/389 113/394/394 112/395/395
f 304/389/389 112/395/395 111/396/396
f 111/396/396 110/397/397 304/389/389
f 304/389/389 110/397/397 109/398/398
f 304/389/389 109/398/398 108/399/399
f 108/399/399 107/400/400 304/389/389
f 304/389/389 107/400/400 106/401/401
f 304/389/389 106/401/401 303/402/402
f 303/402/402 106/401/401 241/403/403
f 303/402/402 241/403/403 240/404/404
f 106/401/401 105/405/405 241/403/403
f 241/403/403 105/405/405 242/406/406
f 242/406/406 105/405/405 104/407/407
f 242/406/406 104/407/407 243/408/408
f 243/408/408 104/407/407 103/409/409
f 243/408/408 103/409/409 244/410/410
f 244/410/410 103/409/409 102/411/411
f 244/410/410 102/411/411 245/412/412
f 245/412/412 102/411/411 101/413/413
f 245/412/412 101/413/413 246/414/414
f 246/414/414 101/413/413 286/415/415
f 246/414/414 286/415/415 247/416/416
f 247/416/416 286/415/415 287/417/417
f 247/416/416 287/417/417 248/418/418
f 248/418/418 287/417/417 288/419/419
f 248/418/418 288/419/419 249/420/420
f 249/420/420 288/419/419 289/421/421
f 249/420/420 289/421/421 290/422/422
f 249/420/420 290/422/422 250/423/423
f 250/423/423 290/422/422 270/424/424
f 250/423/423 270/424/424 251/425/425
f 251/425/425 270/424/424 316/426/426
f 251/425/425 316/426/426 317/427/427
f 270/424/424 269/361/361 316/426/426
f 316/426/426 269/361/361 315/363/363
f 60/305/305 59/428/428 301/303/303
f 301/303/303 59/428/428 58/429/429
f 301/303/303 58/429/429 57/430/430
f 57/430/430 56/431/431 301/303/303
f 301/303/303 56/431/431 55/432/432
f 301/303/303 55/432/432 54/433/433
f 54/433/433 53/434/434 301/303/303
f 301/303/303 53/434/434 52/435/435
f 301/303/303 52/435/435 51/436/436
f 51/436/436 50/437/437 301/303/303
f 301/303/303 50/437/437 343/438/438
f 343/438/438 50/437/437 342/439/439
f 342/439/439 50/437/437 49/440/440
f 342/439/439 49/440/440 48/441/441
f 342/439/439 48/441/441 341/442/442
f 341/442/442 48/441/441 47/443/443
f 341/442/442 47/443/443 340/444/444
f 340/444/444 47/443/443 46/445/445
f 340/444/444 46/445/445 45/446/446
f 340/444/444 45/446/446 339/447/447
f 339/447/447 45/446/446 44/448/448
f 339/447/447 44/448/448 43/449/449
f 339/447/447 43/449/449 338/450/450
f 338/450/450 43/449/449 42/451/451
f 338/450/450 42/451/451 337/452/452
f 337/452/452 42/451/451 41/453/453
f 337/452/452 41/453/453 40/454/454
f 337/452/452 40/454/454 336/455/455
f 336/455/455 40/454/454 39/456/456
f 336/455/455 39/456/456 335/457/457
f 335/457/457 39/456/456 38/458/458
f 335/457/457 38/458/458 37/459/459
f 335/457/457 37/459/459 334/460/460
f 334/460/460 37/459/459 36/461/461
f 334/460/460 36/461/461 333/462/462
f 333/462/462 36/461/461 35/463/463
f 333/462/462 35/463/463 291/464/464
f 333/462/462 291/464/464 332/325/325
f 332/325/325 291/464/464 292/323/323
f 261/344/344 260/465/465 324/342/342
f 324/342/342 260/465/465 323/466/466
f 323/466/466 260/465/465 259/467/467
f 323/466/466 259/467/467 258/468/468
f 323/466/466 258/468/468 322/469/469
f 322/469/469 258/468/468 257/470/470
f 322/469/469 257/470/470 321/471/471
f 321/471/471 257/470/470 256/472/472
f 321/471/471 256/472/472 255/473/473
f 321/471/471 255/473/473 320/474/474
f 320/474/474 255/473/473 254/475/475
f 320/474/474 254/475/475 319/476/476
f 319/476/476 254/475/475 253/477/477
f 319/476/476 253/477/477 318/478/478
f 318/478/478 253/477/477 252/479/479
f 318/478/478 252/479/479 317/427/427
f 317/427/427 252/479/479 251/425/425
f 240/404/404 239/480/480 303/402/402
f 303/402/402 239/480/480 238/481/481
f 303/402/402 238/481/481 237/482/482
f 237/482/482 236/483/483 303/402/402
f 303/402/402 236/483/483 235/484/484
f 303/402/402 235/484/484 234/485/485
f 234/485/485 233/486/486 303/402/402
f 303/402/402 233/486/486 296/487/487
f 303/402/402 296/487/487 297/488/488
f 297/488/488 298/489/489 303/402/402
f 303/402/402 298/489/489 299/490/490
f 303/402/402 299/490/490 300/491/491
f 300/491/491 278/357/357 303/402/402
f 303/402/402 278/357/357 302/291/291
f 279/492/492 278/493/493 347/494/494
f 347/494/494 278/493/493 300/495/495
f 347/494/494 300/495/495 346/496/496
f 346/496/496 300/495/495 299/497/497
f 346/496/496 299/497/497 345/498/498
f 345/498/498 299/497/497 298/499/499
f 345/498/498 298/499/499 344/500/500
f 344/500/500 298/499/499 297/501/501
f 232/502/502 348/503/503 233/504/504
f 233/504/504 348/503/503 296/505/505
f 296/505/505 348/503/503 344/506/506
f 296/505/505 344/506/506 297/507/507
f 267/508/508 266/509/509 352/510/510
f 352/510/510 266/509/509 295/511/511
f 352/510/510 295/511/511 351/512/512
f 351/512/512 295/511/511 294/513/513
f 351/512/512 294/513/513 350/514/514
f 350/514/514 294/513/513 293/515/515
f 350/514/514 293/515/515 349/516/516
f 349/516/516 293/515/515 292/517/517
f 34/518/518 353/519/519 35/520/520
f 35/520/520 353/519/519 291/521/521
f 291/521/521 353/519/519 349/522/522
f 291/521/521 349/522/522 292/523/523
f 271/524/524 270/525/525 357/526/526
f 357/526/526 270/525/525 290/527/527
f 357/526/526 290/527/527 356/528/528
f 356/528/528 290/527/527 289/529/529
f 356/528/528 289/529/529 355/530/530
f 355/530/530 289/529/529 288/531/531
f 355/530/530 288/531/531 354/532/532
f 354/532/532 288/531/531 287/533/533
f 100/534/534 358/535/535 101/536/536
f 101/536/536 358/535/535 286/537/537
f 286/537/537 358/535/535 354/538/538
f 286/537/537 354/538/538 287/539/539
f 275/540/540 274/541/541 362/542/542
f 362/542/542 274/541/541 285/543/543
f 362/542/542 285/543/543 361/544/544
f 361/544/544 285/543/543 284/545/545
f 361/544/544 284/545/545 360/546/546
f 360/546/546 284/545/545 283/547/547
f 360/546/546 283/547/547 359/548/548
f 359/548/548 283/547/547 282/549/549
f 166/550/550 363/551/551 167/552/552
f 167/552/552 363/551/551 281/553/553
f 281/553/553 363/551/551 359/554/554
f 281/553/553 359/554/554 282/555/555
f 303/556/556 302/557/557 365/558/558
f 365/558/558 302/557/557 364/559/559
f 304/560/560 303/561/561 366/562/562
f 366/562/562 303/561/561 365/563/563
f 305/564/564 304/565/565 367/566/566
f 367/566/566 304/565/565 366/567/567
f 405/568/568 343/569/569 404/570/570
f 404/570/570 343/569/569 342/571/571
f 404/570/570 342/571/571 403/572/572
f 403/572/572 342/571/571 341/573/573
f 403/572/572 341/573/573 402/574/574
f 402/574/574 341/573/573 340/575/575
f 402/574/574 340/575/575 401/576/576
f 401/576/576 340/575/575 339/577/577
f 401/576/576 339/577/577 400/578/578
f 400/578/578 339/577/577 338/579/579
f 400/578/578 338/579/579 399/580/580
f 399/580/580 338/579/579 337/581/581
f 399/580/580 337/581/581 398/582/582
f 398/582/582 337/581/581 336/583/583
f 398/582/582 336/583/583 397/584/584
f 397/584/584 336/583/583 335/585/585
f 397/584/584 335/585/585 396/586/586
f 396/586/586 335/585/585 334/587/587
f 396/586/586 334/587/587 395/588/588
f 395/588/588 334/587/587 333/589/589
f 395/588/588 333/589/589 394/590/590
f 394/590/590 333/589/589 332/591/591
f 394/590/590 332/591/591 393/592/592
f 393/592/592 332/591/591 331/593/593
f 393/592/592 331/593/593 392/594/594
f 392/594/594 331/593/593 330/595/595
f 392/594/594 330/595/595 391/596/596
f 391/596/596 330/595/595 329/597/597
f 391/596/596 329/597/597 390/598/598
f 390/598/598 329/597/597 328/599/599
f 390/598/598 328/599/599 389/600/600
f 389/600/600 328/599/599 327/601/601
f 389/600/600 327/601/601 388/602/602
f 388/602/602 327/601/601 326/603/603
f 388/602/602 326/603/603 387/604/604
f 387/604/604 326/603/603 325/605/605
f 387/604/604 325/605/605 386/606/606
f 386/606/606 325/605/605 324/607/607
f 386/606/606 324/607/607 385/608/608
f 385/608/608 324/607/607 323/609/609
f 385/608/608 323/609/609 384/610/610
f 384/610/610 323/609/609 322/611/611
f 384/610/610 322/611/611 383/612/612
f 383/612/612 322/611/611 321/613/613
f 383/612/612 321/613/613 382/614/614
f 382/614/614 321/613/613 320/615/615
f 382/614/614 320/615/615 381/616/616
f 381/616/616 320/615/615 319/617/617
f 381/616/616 319/617/617 380/618/618
f 380/618/618 319/617/617 318/619/619
f 380/618/618 318/619/619 379/620/620
f 379/620/620 318/619/619 317/621/621
f 379/620/620 317/621/621 378/622/622
f 378/622/622 317/621/621 316/623/623
f 378/622/622 316/623/623 377/624/624
f 377/624/624 316/623/623 315/625/625
f 377/624/624 315/625/625 376/626/626
f 376/626/626 315/625/625 314/627/627
f 376/626/626 314/627/627 375/628/628
f 375/628/628 314/627/627 313/629/629
f 375/628/628 313/629/629 374/630/630
f 374/630/630 313/629/629 312/631/631
f 374/630/630 312/631/631 373/632/632
f 373/632/632 312/631/631 311/633/633
f 373/632/632 311/633/633 372/634/634
f 372/634/634 311/633/633 310/635/635
f 372/634/634 310/635/635 371/636/636
f 371/636/636 310/635/635 309/637/637
f 371/636/636 309/637/637 370/638/638
f 370/638/638 309/637/637 308/639/639
f 370/638/638 308/639/639 369/640/640
f 369/640/640 308/639/639 307/641/641
f 369/640/640 307/641/641 368/642/642
f 368/642/642 307/641/641 306/643/643
f 368/642/642 306/643/643 367/644/644
f 367/644/644 306/643/643 305/645/645
f 301/646/646 343/647/647 406/648/648
f 406/648/648 343/647/647 405/649/649
f 302/650/650 301/651/651 364/652/652
f 364/652/652 301/651/651 406/653/653
f 353/654/654 34/655/655 395/656/656
f 395/656/656 34/655/655 33/657/657
f 395/656/656 33/657/657 396/658/658
f 396/658/658 33/657/657 32/659/659
f 396/658/658 32/659/659 397/660/660
f 397/660/660 32/659/659 31/661/661
f 397/660/660 31/661/661 30/662/662
f 397/660/660 30/662/662 398/663/663
f 398/663/663 30/662/662 29/664/664
f 398/663/663 29/664/664 399/665/665
f 399/665/665 29/664/664 28/666/666
f 399/665/665 28/666/666 27/667/667
f 399/665/665 27/667/667 400/668/668
f 400/668/668 27/667/667 26/669/669
f 400/668/668 26/669/669 401/670/670
f 401/670/670 26/669/669 25/671/671
f 401/670/670 25/671/671 24/672/672
f 401/670/670 24/672/672 402/673/673
f 402/673/673 24/672/672 23/674/674
f 402/673/673 23/674/674 22/675/675
f 402/673/673 22/675/675 403/676/676
f 403/676/676 22/675/675 21/677/677
f 403/676/676 21/677/677 404/678/678
f 404/678/678 21/677/677 20/679/679
f 404/678/678 20/679/679 19/680/680
f 18/681/681 406/682/682 19/680/680
f 19/680/680 406/682/682 405/683/683
f 19/680/680 405/683/683 404/678/678
f 18/681/681 17/684/684 406/682/682
f 406/682/682 17/684/684 16/685/685
f 406/682/682 16/685/685 15/686/686
f 15/686/686 14/687/687 406/682/682
f 406/682/682 14/687/687 13/688/688
f 406/682/682 13/688/688 12/689/689
f 12/689/689 11/690/690 406/682/682
f 406/682/682 11/690/690 10/691/691
f 406/682/682 10/691/691 9/692/692
f 9/692/692 8/693/693 406/682/682
f 406/682/682 8/693/693 7/694/694
f 406/682/682 7/694/694 364/695/695
f 364/695/695 7/694/694 142/696/696
f 364/695/695 142/696/696 141/697/697
f 7/694/694 6/698/698 142/696/696
f 142/696/696 6/698/698 143/699/699
f 143/699/699 6/698/698 5/700/700
f 143/699/699 5/700/700 144/701/701
f 144/701/701 5/700/700 4/702/702
f 144/701/701 4/702/702 145/703/703
f 145/703/703 4/702/702 3/704/704
f 145/703/703 3/704/704 146/705/705
f 146/705/705 3/704/704 2/706/706
f 146/705/705 2/706/706 147/707/707
f 147/707/707 2/706/706 268/708/708
f 147/707/707 268/708/708 148/709/709
f 148/709/709 268/708/708 267/710/710
f 148/709/709 267/710/710 149/711/711
f 149/711/711 267/710/710 352/712/712
f 149/711/711 352/712/712 150/713/713
f 150/713/713 352/712/712 351/714/714
f 150/713/713 351/714/714 350/715/715
f 150/713/713 350/715/715 151/716/716
f 151/716/716 350/715/715 349/717/717
f 151/716/716 349/717/717 152/718/718
f 152/718/718 349/717/717 394/719/719
f 152/718/718 394/719/719 393/720/720
f 349/717/717 353/654/654 394/719/719
f 394/719/719 353/654/654 395/656/656
f 99/721/721 220/722/722 100/723/723
f 100/723/723 220/722/722 219/724/724
f 100/723/723 219/724/724 358/725/725
f 358/725/725 219/724/724 218/726/726
f 358/725/725 218/726/726 354/727/727
f 354/727/727 218/726/726 217/728/728
f 354/727/727 217/728/728 355/729/729
f 355/729/729 217/728/728 216/730/730
f 355/729/729 216/730/730 356/731/731
f 356/731/731 216/730/730 357/732/732
f 357/732/732 216/730/730 215/733/733
f 357/732/732 215/733/733 271/734/734
f 271/734/734 215/733/733 214/735/735
f 271/734/734 214/735/735 378/736/736
f 378/736/736 214/735/735 379/737/737
f 379/737/737 214/735/735 213/738/738
f 379/737/737 213/738/738 380/739/739
f 380/739/739 213/738/738 212/740/740
f 380/739/739 212/740/740 381/741/741
f 381/741/741 212/740/740 211/742/742
f 381/741/741 211/742/742 382/743/743
f 382/743/743 211/742/742 210/744/744
f 382/743/743 210/744/744 383/745/745
f 383/745/745 210/744/744 209/746/746
f 383/745/745 209/746/746 208/747/747
f 220/722/722 99/721/721 221/748/748
f 221/748/748 99/721/721 98/749/749
f 221/748/748 98/749/749 222/750/750
f 222/750/750 98/749/749 97/751/751
f 222/750/750 97/751/751 223/752/752
f 223/752/752 97/751/751 96/753/753
f 223/752/752 96/753/753 224/754/754
f 224/754/754 96/753/753 95/755/755
f 224/754/754 95/755/755 365/756/756
f 365/756/756 95/755/755 366/757/757
f 366/757/757 95/755/755 94/758/758
f 366/757/757 94/758/758 93/759/759
f 93/759/759 92/760/760 366/757/757
f 366/757/757 92/760/760 91/761/761
f 366/757/757 91/761/761 90/762/762
f 90/762/762 89/763/763 366/757/757
f 366/757/757 89/763/763 88/764/764
f 366/757/757 88/764/764 87/765/765
f 87/765/765 86/766/766 366/757/757
f 366/757/757 86/766/766 85/767/767
f 366/757/757 85/767/767 84/768/768
f 84/768/768 83/769/769 366/757/757
f 366/757/757 83/769/769 367/770/770
f 367/770/770 83/769/769 368/771/771
f 368/771/771 83/769/769 82/772/772
f 368/771/771 82/772/772 81/773/773
f 368/771/771 81/773/773 369/774/774
f 369/774/774 81/773/773 80/775/775
f 369/774/774 80/775/775 370/776/776
f 370/776/776 80/775/775 79/777/777
f 370/776/776 79/777/777 78/778/778
f 370/776/776 78/778/778 371/779/779
f 371/779/779 78/778/778 77/780/780
f 371/779/779 77/780/780 76/781/781
f 371/779/779 76/781/781 372/782/782
f 372/782/782 76/781/781 75/783/783
f 372/782/782 75/783/783 373/784/784
f 373/784/784 75/783/783 74/785/785
f 373/784/784 74/785/785 73/786/786
f 373/784/784 73/786/786 374/787/787
f 374/787/787 73/786/786 72/788/788
f 374/787/787 72/788/788 375/789/789
f 375/789/789 72/788/788 71/790/790
f 375/789/789 71/790/790 70/791/791
f 375/789/789 70/791/791 376/792/792
f 376/792/792 70/791/791 69/793/793
f 376/792/792 69/793/793 377/794/794
f 377/794/794 69/793/793 68/795/795
f 377/794/794 68/795/795 272/796/796
f 377/794/794 272/796/796 378/736/736
f 378/736/736 272/796/796 271/734/734
f 165/797/797 201/798/798 166/799/799
f 166/799/799 201/798/798 200/800/800
f 166/799/799 200/800/800 280/801/801
f 201/798/798 165/797/797 202/802/802
f 202/802/802 165/797/797 164/803/803
f 202/802/802 164/803/803 203/804/804
f 203/804/804 164/803/803 163/805/805
f 203/804/804 163/805/805 204/806/806
f 204/806/806 163/805/805 162/807/807
f 204/806/806 162/807/807 386/808/808
f 386/808/808 162/807/807 161/809/809
f 386/808/808 161/809/809 387/810/810
f 387/810/810 161/809/809 160/811/811
f 387/810/810 160/811/811 159/812/812
f 387/810/810 159/812/812 388/813/813
f 388/813/813 159/812/812 158/814/814
f 388/813/813 158/814/814 389/815/815
f 389/815/815 158/814/814 157/816/816
f 389/815/815 157/816/816 156/817/817
f 389/815/815 156/817/817 390/818/818
f 390/818/818 156/817/817 155/819/819
f 390/818/818 155/819/819 391/820/820
f 391/820/820 155/819/819 154/821/821
f 391/820/820 154/821/821 392/822/822
f 392/822/822 154/821/821 153/823/823
f 392/822/822 153/823/823 393/720/720
f 393/720/720 153/823/823 152/718/718
f 141/697/697 140/824/824 364/695/695
f 364/695/695 140/824/824 139/825/825
f 364/695/695 139/825/825 138/826/826
f 138/826/826 137/827/827 364/695/695
f 364/695/695 137/827/827 136/828/828
f 364/695/695 136/828/828 135/829/829
f 135/829/829 134/830/830 364/695/695
f 364/695/695 134/830/830 276/831/831
f 364/695/695 276/831/831 275/832/832
f 275/832/832 362/833/833 364/695/695
f 364/695/695 362/833/833 361/834/834
f 364/695/695 361/834/834 360/835/835
f 360/835/835 359/836/836 364/695/695
f 364/695/695 359/836/836 279/837/837
f 364/695/695 279/837/837 365/756/756
f 365/756/756 279/837/837 347/838/838
f 365/756/756 347/838/838 346/839/839
f 279/837/837 359/836/836 280/801/801
f 280/801/801 359/836/836 363/840/840
f 280/801/801 363/840/840 166/799/799
f 348/841/841 232/842/842 365/756/756
f 365/756/756 232/842/842 231/843/843
f 365/756/756 231/843/843 230/844/844
f 230/844/844 229/845/845 365/756/756
f 365/756/756 229/845/845 228/846/846
f 365/756/756 228/846/846 227/847/847
f 227/847/847 226/848/848 365/756/756
f 365/756/756 226/848/848 225/849/849
f 365/756/756 225/849/849 224/754/754
f 383/745/745 208/747/747 384/850/850
f 384/850/850 208/747/747 207/851/851
f 384/850/850 207/851/851 385/852/852
f 385/852/852 207/851/851 206/853/853
f 385/852/852 206/853/853 205/854/854
f 385/852/852 205/854/854 386/808/808
f 386/808/808 205/854/854 204/806/806
f 346/839/839 345/855/855 365/756/756
f 365/756/756 345/855/855 344/856/856
f 365/756/756 344/856/856 348/841/841
# 406 vertices
# 856 texture params
# 856 normals
# 824 facets

# 1 groups
